<svg id="Layer_1" data-name="Layer 1" xmlns="http://www.w3.org/2000/svg" viewBox="0 0 512 298.7"><defs><style>.cls-1{fill:#3d9244;}.cls-2{fill:#edc223;}.cls-3{fill:#31276c;}.cls-4{fill:#fff;}</style></defs><title>brazil_flag</title><rect class="cls-1" width="512" height="298.7"/><polygon class="cls-2" points="78.9 149.3 256 262.4 433.1 149.3 256 36.2 78.9 149.3"/><path class="cls-3" d="M330.7,256A74.7,74.7,0,1,1,256,181.3,74.77,74.77,0,0,1,330.7,256" transform="translate(0 -106.7)"/><path class="cls-4" d="M213.3,224a179.41,179.41,0,0,0-25.6,1.8,90.53,90.53,0,0,0-4,11.4,170.43,170.43,0,0,1,143.5,41,77.71,77.71,0,0,0,2.7-11.8A181,181,0,0,0,213.3,224" transform="translate(0 -106.7)"/><path class="cls-1" d="M192.3,234.2a3.29,3.29,0,0,0,2.7-3.9,3.34,3.34,0,0,0-3.6-3.1,3.29,3.29,0,0,0-2.7,3.9,3.47,3.47,0,0,0,3.6,3.1m-.1-1.3a2.1,2.1,0,0,0,1.6-2.4,2.15,2.15,0,0,0-2.1-2,2.1,2.1,0,0,0-1.6,2.4,2,2,0,0,0,2.1,2" transform="translate(0 -106.7)"/><path class="cls-1" d="M198.1,233.5l1.3-.1-.2-2.6,2.8-.2a2.31,2.31,0,0,0,2.1-2.4,2.25,2.25,0,0,0-2.4-2.1l-4.1.3Zm1.1-4,2.7-.2a.91.91,0,0,0-.2-1.8l-2.7.2Z" transform="translate(0 -106.7)"/><path class="cls-1" d="M204.1,233.1c-.1-1-.2-3.3-1.7-3.1l-1.9.1c2.2-.2,2.4,2.1,2.4,3.1" transform="translate(0 -106.7)"/><path class="cls-1" d="M207.1,233l3.4-.1a3,3,0,0,0,3-3.1v-1a3,3,0,0,0-3.1-3l-3.4.1Zm1.3-1.4h1.9a1.92,1.92,0,0,0,1.9-2V229a1.92,1.92,0,0,0-2-1.9h-1.9Z" transform="translate(0 -106.7)"/><polygon class="cls-1" points="216.2 126.2 222.6 126.4 222.6 125.1 217.4 124.9 217.5 123.1 221.6 123.2 221.6 122 217.5 121.9 217.6 120.4 222.5 120.6 222.5 119.3 216.4 119.1 216.2 126.2"/><polygon class="cls-1" points="225.2 126.6 226.4 126.7 226.8 121.8 227.8 126.8 228.9 126.9 230.8 122.2 230.3 127 231.6 127.1 232.2 120 230.4 119.9 228.6 124.6 227.6 119.6 225.8 119.5 225.2 126.6"/><polygon class="cls-1" points="239.9 128.2 245.2 129.1 245.4 127.9 241.3 127.2 241.6 125.6 244.9 126.2 245.1 125 241.8 124.4 242 123.3 245.9 124 246.1 122.8 241 121.9 239.9 128.2"/><path class="cls-1" d="M253.4,237.6l1.3.3.7-2.5,2.8.7a2.22,2.22,0,0,0,1.1-4.3l-3.9-1Zm2.3-3.5,2.7.7a.92.92,0,1,0,.4-1.8l-2.7-.7Z" transform="translate(0 -106.7)"/><path class="cls-1" d="M262.1,239.9l1.3.4.8-2.5,2.7.9a2.25,2.25,0,1,0,1.3-4.3l-3.9-1.2Zm2.5-3.4,2.6.8a.95.95,0,0,0,.6-1.8l-2.6-.8Z" transform="translate(0 -106.7)"/><path class="cls-1" d="M267.9,241.7c.3-1,1-3.1-.5-3.6l-1.8-.6c2.1.7,1.5,2.8,1.1,3.8" transform="translate(0 -106.7)"/><path class="cls-1" d="M273.7,243.8a3.34,3.34,0,0,0,4.2-2.2,3.46,3.46,0,0,0-1.8-4.5,3.34,3.34,0,0,0-4.2,2.2,3.57,3.57,0,0,0,1.8,4.5m.5-1.2a2,2,0,0,0,2.5-1.4,2.15,2.15,0,0,0-1-2.8,2,2,0,0,0-2.5,1.4,2.15,2.15,0,0,0,1,2.8" transform="translate(0 -106.7)"/><path class="cls-1" d="M282.1,247.2a3.47,3.47,0,0,0,4.4-2,3.35,3.35,0,0,0-1.5-4.5,3.47,3.47,0,0,0-4.4,2,3.38,3.38,0,0,0,1.5,4.5m.5-1.2a2.28,2.28,0,1,0-.8-2.8,2.13,2.13,0,0,0,.8,2.8" transform="translate(0 -106.7)"/><polygon class="cls-1" points="284 137.4 286.5 138.5 286 139.4 283.6 138.3 284 137.4"/><polygon class="cls-1" points="285.5 138.1 286.5 138.5 285 141.8 284.1 141.4 285.5 138.1"/><path class="cls-1" d="M287.4,249.6l1.2.6,1.2-2.4,2.5,1.3a2.19,2.19,0,0,0,3-1,2.3,2.3,0,0,0-1-3l-3.6-1.8Zm3-3,2.5,1.2a.89.89,0,0,0,.8-1.6l-2.5-1.2Z" transform="translate(0 -106.7)"/><path class="cls-1" d="M292.8,252.3c.5-.9,1.4-2.9.1-3.6l-1.7-.9c2,1,1,3,.5,3.9" transform="translate(0 -106.7)"/><polygon class="cls-1" points="295.5 147 301 150.1 301.7 149 297.2 146.4 298.1 144.8 301.6 146.8 302.2 145.8 298.7 143.8 299.4 142.5 303.6 144.9 304.3 143.8 299 140.8 295.5 147"/><path class="cls-1" d="M305.8,257.1c-.4.6,0,1.3.9,1.8s1.4.5,1.7.1c.8-1.2-3.7-3-2.3-5.1,1.2-1.8,3.2-.4,4,.1s2,1.8,1,3.2l-1.3-.8c.4-.6,0-1.3-.7-1.7s-1.2-.6-1.6,0c-.7,1,3.7,2.9,2.4,5-1,1.6-2.7.9-3.9.1-1-.6-2.5-2.1-1.5-3.6Z" transform="translate(0 -106.7)"/><path class="cls-1" d="M313.5,262.2c-.4.6-.1,1.3.8,1.9s1.4.6,1.7.2c.8-1.2-3.6-3.2-2.1-5.2,1.3-1.8,3.3-.2,4,.3s1.9,1.9.9,3.3l-1.3-.9c.4-.6,0-1.3-.6-1.7s-1.2-.7-1.6-.1c-.7.9,3.6,3.1,2.1,5.1-1.1,1.5-2.8.7-3.9,0-.9-.7-2.3-2.2-1.3-3.7Z" transform="translate(0 -106.7)"/><path class="cls-1" d="M320.7,270.4a3.58,3.58,0,0,0,4.4-5.6,3.31,3.31,0,0,0-4.7.8,3.43,3.43,0,0,0,.3,4.8m.8-1.1a2.15,2.15,0,0,0,2.9-.6,2,2,0,0,0-.1-2.9,2.15,2.15,0,0,0-2.9.6,2.13,2.13,0,0,0,.1,2.9" transform="translate(0 -106.7)"/><polygon class="cls-4" points="195.1 132.7 194.1 135.7 195.6 136.2 195.1 132.7"/><polygon class="cls-4" points="195.1 132.7 196 135.7 194.5 136.2 195.1 132.7"/><polygon class="cls-4" points="198.1 134.9 194.9 134.9 194.9 136.5 198.1 134.9"/><polygon class="cls-4" points="198.1 134.9 195.5 136.8 194.6 135.5 198.1 134.9"/><polygon class="cls-4" points="192 134.9 194.6 136.8 195.5 135.5 192 134.9"/><polygon class="cls-4" points="192 134.9 195.2 134.9 195.2 136.5 192 134.9"/><polygon class="cls-4" points="196.9 138.5 195.9 135.4 194.4 135.9 196.9 138.5"/><polygon class="cls-4" points="196.9 138.5 194.3 136.6 195.3 135.3 196.9 138.5"/><polygon class="cls-4" points="193.2 138.5 195.8 136.6 194.8 135.3 193.2 138.5"/><polygon class="cls-4" points="193.2 138.5 194.2 135.4 195.7 135.9 193.2 138.5"/><polygon class="cls-4" points="201.7 164.1 200.7 167.1 202.2 167.6 201.7 164.1"/><polygon class="cls-4" points="201.7 164.1 202.6 167.1 201.1 167.6 201.7 164.1"/><polygon class="cls-4" points="204.7 166.3 201.5 166.3 201.5 167.9 204.7 166.3"/><polygon class="cls-4" points="204.7 166.3 202.1 168.2 201.2 166.9 204.7 166.3"/><polygon class="cls-4" points="198.6 166.3 201.2 168.2 202.1 166.9 198.6 166.3"/><polygon class="cls-4" points="198.6 166.3 201.8 166.3 201.8 167.9 198.6 166.3"/><polygon class="cls-4" points="203.5 169.9 202.5 166.8 201 167.3 203.5 169.9"/><polygon class="cls-4" points="203.5 169.9 200.9 168 201.9 166.7 203.5 169.9"/><polygon class="cls-4" points="199.8 169.9 202.4 168 201.4 166.7 199.8 169.9"/><polygon class="cls-4" points="199.8 169.9 200.8 166.8 202.3 167.3 199.8 169.9"/><polygon class="cls-4" points="192.5 171.8 191.9 173.9 192.9 174.2 192.5 171.8"/><polygon class="cls-4" points="192.5 171.8 193.2 173.9 192.2 174.2 192.5 171.8"/><polygon class="cls-4" points="194.5 173.3 192.4 173.3 192.4 174.4 194.5 173.3"/><polygon class="cls-4" points="194.5 173.3 192.8 174.6 192.2 173.7 194.5 173.3"/><polygon class="cls-4" points="190.5 173.3 192.2 174.6 192.8 173.7 190.5 173.3"/><polygon class="cls-4" points="190.5 173.3 192.6 173.3 192.6 174.4 190.5 173.3"/><polygon class="cls-4" points="193.8 175.7 193.1 173.7 192.1 174 193.8 175.7"/><polygon class="cls-4" points="193.8 175.7 192 174.4 192.7 173.6 193.8 175.7"/><polygon class="cls-4" points="191.3 175.7 193 174.4 192.4 173.6 191.3 175.7"/><polygon class="cls-4" points="191.3 175.7 191.9 173.7 192.9 174 191.3 175.7"/><polygon class="cls-4" points="209 161.2 208.5 162.6 209.2 162.9 209 161.2"/><polygon class="cls-4" points="209 161.2 209.4 162.6 208.7 162.9 209 161.2"/><polygon class="cls-4" points="210.4 162.2 208.9 162.2 208.9 163 210.4 162.2"/><polygon class="cls-4" points="210.4 162.2 209.2 163.1 208.7 162.5 210.4 162.2"/><polygon class="cls-4" points="207.5 162.2 208.7 163.1 209.2 162.5 207.5 162.2"/><polygon class="cls-4" points="207.5 162.2 209 162.2 209 163 207.5 162.2"/><polygon class="cls-4" points="209.9 163.9 209.4 162.5 208.7 162.7 209.9 163.9"/><polygon class="cls-4" points="209.9 163.9 208.6 163 209.1 162.4 209.9 163.9"/><polygon class="cls-4" points="208.1 163.9 209.3 163 208.9 162.4 208.1 163.9"/><polygon class="cls-4" points="208.1 163.9 208.5 162.5 209.3 162.7 208.1 163.9"/><polygon class="cls-4" points="217.2 172 216.4 174.6 217.6 175 217.2 172"/><polygon class="cls-4" points="217.2 172 218 174.6 216.8 175 217.2 172"/><polygon class="cls-4" points="219.7 173.9 217.1 173.9 217.1 175.2 219.7 173.9"/><polygon class="cls-4" points="219.7 173.9 217.6 175.4 216.8 174.4 219.7 173.9"/><polygon class="cls-4" points="214.7 173.9 216.8 175.4 217.6 174.4 214.7 173.9"/><polygon class="cls-4" points="214.7 173.9 217.3 173.9 217.3 175.2 214.7 173.9"/><polygon class="cls-4" points="218.8 176.8 217.9 174.3 216.7 174.7 218.8 176.8"/><polygon class="cls-4" points="218.8 176.8 216.6 175.3 217.4 174.2 218.8 176.8"/><polygon class="cls-4" points="215.6 176.8 217.8 175.3 217 174.2 215.6 176.8"/><polygon class="cls-4" points="215.6 176.8 216.5 174.3 217.7 174.7 215.6 176.8"/><polygon class="cls-4" points="215 179.4 214.1 182 215.4 182.4 215 179.4"/><polygon class="cls-4" points="215 179.4 215.8 182 214.5 182.4 215 179.4"/><polygon class="cls-4" points="217.5 181.3 214.8 181.3 214.8 182.6 217.5 181.3"/><polygon class="cls-4" points="217.5 181.3 215.3 182.9 214.6 181.8 217.5 181.3"/><polygon class="cls-4" points="212.4 181.3 214.6 182.9 215.4 181.8 212.4 181.3"/><polygon class="cls-4" points="212.4 181.3 215.1 181.3 215.1 182.6 212.4 181.3"/><polygon class="cls-4" points="216.5 184.3 215.7 181.7 214.4 182.1 216.5 184.3"/><polygon class="cls-4" points="216.5 184.3 214.4 182.7 215.2 181.6 216.5 184.3"/><polygon class="cls-4" points="213.4 184.3 215.6 182.7 214.8 181.6 213.4 184.3"/><polygon class="cls-4" points="213.4 184.3 214.2 181.7 215.5 182.1 213.4 184.3"/><polygon class="cls-4" points="279.2 122.9 278.2 126 279.7 126.5 279.2 122.9"/><polygon class="cls-4" points="279.2 122.9 280.2 126 278.6 126.5 279.2 122.9"/><polygon class="cls-4" points="282.2 125.1 279 125.1 279 126.7 282.2 125.1"/><polygon class="cls-4" points="282.2 125.1 279.6 127 278.7 125.7 282.2 125.1"/><polygon class="cls-4" points="276.1 125.1 278.7 127 279.7 125.7 276.1 125.1"/><polygon class="cls-4" points="276.1 125.1 279.3 125.1 279.3 126.7 276.1 125.1"/><polygon class="cls-4" points="281 128.7 280.1 125.7 278.5 126.2 281 128.7"/><polygon class="cls-4" points="281 128.7 278.5 126.8 279.4 125.5 281 128.7"/><polygon class="cls-4" points="277.3 128.7 279.9 126.8 278.9 125.5 277.3 128.7"/><polygon class="cls-4" points="277.3 128.7 278.3 125.7 279.8 126.2 277.3 128.7"/><polygon class="cls-4" points="308.3 172.3 307.3 175.4 308.9 175.8 308.3 172.3"/><polygon class="cls-4" points="308.3 172.3 309.3 175.4 307.8 175.8 308.3 172.3"/><polygon class="cls-4" points="311.4 174.5 308.2 174.5 308.2 176.1 311.4 174.5"/><polygon class="cls-4" points="311.4 174.5 308.8 176.4 307.8 175.1 311.4 174.5"/><polygon class="cls-4" points="305.3 174.5 307.9 176.4 308.8 175.1 305.3 174.5"/><polygon class="cls-4" points="305.3 174.5 308.5 174.5 308.5 176.1 305.3 174.5"/><polygon class="cls-4" points="310.2 178.1 309.2 175.1 307.7 175.5 310.2 178.1"/><polygon class="cls-4" points="310.2 178.1 307.6 176.2 308.6 174.9 310.2 178.1"/><polygon class="cls-4" points="306.4 178.1 309 176.2 308.1 174.9 306.4 178.1"/><polygon class="cls-4" points="306.4 178.1 307.4 175.1 308.9 175.5 306.4 178.1"/><polygon class="cls-4" points="318.7 174.1 318 176.1 319 176.4 318.7 174.1"/><polygon class="cls-4" points="318.7 174.1 319.3 176.1 318.3 176.4 318.7 174.1"/><polygon class="cls-4" points="320.7 175.6 318.6 175.6 318.6 176.6 320.7 175.6"/><polygon class="cls-4" points="320.7 175.6 319 176.8 318.4 176 320.7 175.6"/><polygon class="cls-4" points="316.6 175.6 318.4 176.8 319 176 316.6 175.6"/><polygon class="cls-4" points="316.6 175.6 318.8 175.6 318.8 176.6 316.6 175.6"/><polygon class="cls-4" points="319.9 177.9 319.3 175.9 318.3 176.2 319.9 177.9"/><polygon class="cls-4" points="319.9 177.9 318.2 176.7 318.8 175.8 319.9 177.9"/><polygon class="cls-4" points="317.4 177.9 319.1 176.7 318.5 175.8 317.4 177.9"/><polygon class="cls-4" points="317.4 177.9 318.1 175.9 319.1 176.2 317.4 177.9"/><polygon class="cls-4" points="311.4 179.4 310.5 182 311.8 182.4 311.4 179.4"/><polygon class="cls-4" points="311.4 179.4 312.2 182 310.9 182.4 311.4 179.4"/><polygon class="cls-4" points="313.9 181.3 311.2 181.3 311.2 182.6 313.9 181.3"/><polygon class="cls-4" points="313.9 181.3 311.7 182.9 311 181.8 313.9 181.3"/><polygon class="cls-4" points="308.8 181.3 311 182.9 311.8 181.8 308.8 181.3"/><polygon class="cls-4" points="308.8 181.3 311.5 181.3 311.5 182.6 308.8 181.3"/><polygon class="cls-4" points="312.9 184.3 312.1 181.7 310.8 182.1 312.9 184.3"/><polygon class="cls-4" points="312.9 184.3 310.8 182.7 311.6 181.6 312.9 184.3"/><polygon class="cls-4" points="309.8 184.3 312 182.7 311.2 181.6 309.8 184.3"/><polygon class="cls-4" points="309.8 184.3 310.6 181.7 311.9 182.1 309.8 184.3"/><polygon class="cls-4" points="293.4 195.1 292.6 197.6 293.8 198 293.4 195.1"/><polygon class="cls-4" points="293.4 195.1 294.2 197.6 292.9 198 293.4 195.1"/><polygon class="cls-4" points="295.9 196.9 293.3 196.9 293.3 198.3 295.9 196.9"/><polygon class="cls-4" points="295.9 196.9 293.8 198.5 293 197.4 295.9 196.9"/><polygon class="cls-4" points="290.9 196.9 293 198.5 293.8 197.4 290.9 196.9"/><polygon class="cls-4" points="290.9 196.9 293.5 196.9 293.5 198.3 290.9 196.9"/><polygon class="cls-4" points="295 199.9 294.1 197.4 292.9 197.8 295 199.9"/><polygon class="cls-4" points="295 199.9 292.8 198.3 293.6 197.3 295 199.9"/><polygon class="cls-4" points="291.8 199.9 294 198.3 293.2 197.3 291.8 199.9"/><polygon class="cls-4" points="291.8 199.9 292.6 197.4 293.9 197.8 291.8 199.9"/><polygon class="cls-4" points="293.3 203.1 292.6 205.2 293.6 205.5 293.3 203.1"/><polygon class="cls-4" points="293.3 203.1 293.9 205.2 292.9 205.5 293.3 203.1"/><polygon class="cls-4" points="295.3 204.6 293.2 204.6 293.2 205.7 295.3 204.6"/><polygon class="cls-4" points="295.3 204.6 293.6 205.9 293 205 295.3 204.6"/><polygon class="cls-4" points="291.3 204.6 293 205.9 293.6 205 291.3 204.6"/><polygon class="cls-4" points="291.3 204.6 293.4 204.6 293.4 205.7 291.3 204.6"/><polygon class="cls-4" points="294.5 207 293.9 205 292.9 205.3 294.5 207"/><polygon class="cls-4" points="294.5 207 292.8 205.7 293.4 204.9 294.5 207"/><polygon class="cls-4" points="292 207 293.8 205.7 293.1 204.9 292 207"/><polygon class="cls-4" points="292 207 292.7 205 293.7 205.3 292 207"/><polygon class="cls-4" points="300.8 189.7 300.1 191.8 301.2 192.1 300.8 189.7"/><polygon class="cls-4" points="300.8 189.7 301.5 191.8 300.4 192.1 300.8 189.7"/><polygon class="cls-4" points="302.8 191.2 300.7 191.2 300.7 192.3 302.8 191.2"/><polygon class="cls-4" points="302.8 191.2 301.1 192.5 300.5 191.6 302.8 191.2"/><polygon class="cls-4" points="298.8 191.2 300.5 192.5 301.1 191.6 298.8 191.2"/><polygon class="cls-4" points="298.8 191.2 300.9 191.2 300.9 192.3 298.8 191.2"/><polygon class="cls-4" points="302.1 193.6 301.4 191.6 300.4 191.9 302.1 193.6"/><polygon class="cls-4" points="302.1 193.6 300.3 192.3 301 191.5 302.1 193.6"/><polygon class="cls-4" points="299.6 193.6 301.3 192.3 300.6 191.5 299.6 193.6"/><polygon class="cls-4" points="299.6 193.6 300.2 191.6 301.2 191.9 299.6 193.6"/><polygon class="cls-4" points="306.8 185.4 306 188 307.2 188.4 306.8 185.4"/><polygon class="cls-4" points="306.8 185.4 307.6 188 306.4 188.4 306.8 185.4"/><polygon class="cls-4" points="309.3 187.3 306.7 187.3 306.7 188.6 309.3 187.3"/><polygon class="cls-4" points="309.3 187.3 307.2 188.8 306.4 187.8 309.3 187.3"/><polygon class="cls-4" points="304.3 187.3 306.4 188.8 307.2 187.8 304.3 187.3"/><polygon class="cls-4" points="304.3 187.3 306.9 187.3 306.9 188.6 304.3 187.3"/><polygon class="cls-4" points="308.4 190.2 307.5 187.7 306.3 188.1 308.4 190.2"/><polygon class="cls-4" points="308.4 190.2 306.2 188.7 307 187.6 308.4 190.2"/><polygon class="cls-4" points="305.2 190.2 307.4 188.7 306.6 187.6 305.2 190.2"/><polygon class="cls-4" points="305.2 190.2 306.1 187.7 307.3 188.1 305.2 190.2"/><polygon class="cls-4" points="293.1 188.3 292.4 190.3 293.4 190.7 293.1 188.3"/><polygon class="cls-4" points="293.1 188.3 293.7 190.3 292.7 190.7 293.1 188.3"/><polygon class="cls-4" points="295.1 189.8 293 189.8 293 190.8 295.1 189.8"/><polygon class="cls-4" points="295.1 189.8 293.4 191 292.8 190.2 295.1 189.8"/><polygon class="cls-4" points="291.1 189.8 292.8 191 293.4 190.2 291.1 189.8"/><polygon class="cls-4" points="291.1 189.8 293.2 189.8 293.2 190.8 291.1 189.8"/><polygon class="cls-4" points="294.3 192.2 293.7 190.1 292.7 190.4 294.3 192.2"/><polygon class="cls-4" points="294.3 192.2 292.6 190.9 293.2 190.1 294.3 192.2"/><polygon class="cls-4" points="291.8 192.2 293.6 190.9 292.9 190.1 291.8 192.2"/><polygon class="cls-4" points="291.8 192.2 292.5 190.1 293.5 190.4 291.8 192.2"/><polygon class="cls-4" points="227.6 149.7 226.7 152.2 228 152.6 227.6 149.7"/><polygon class="cls-4" points="227.6 149.7 228.4 152.2 227.1 152.6 227.6 149.7"/><polygon class="cls-4" points="230.1 151.5 227.4 151.5 227.4 152.8 230.1 151.5"/><polygon class="cls-4" points="230.1 151.5 227.9 153.1 227.2 152 230.1 151.5"/><polygon class="cls-4" points="225 151.5 227.2 153.1 228 152 225 151.5"/><polygon class="cls-4" points="225 151.5 227.7 151.5 227.7 152.8 225 151.5"/><polygon class="cls-4" points="229.1 154.5 228.3 152 227 152.4 229.1 154.5"/><polygon class="cls-4" points="229.1 154.5 227 152.9 227.8 151.8 229.1 154.5"/><polygon class="cls-4" points="226 154.5 228.1 152.9 227.4 151.8 226 154.5"/><polygon class="cls-4" points="226 154.5 226.8 152 228.1 152.4 226 154.5"/><polygon class="cls-4" points="276.3 143.4 275.7 145.4 276.7 145.8 276.3 143.4"/><polygon class="cls-4" points="276.3 143.4 277 145.4 276 145.8 276.3 143.4"/><polygon class="cls-4" points="278.3 144.9 276.2 144.9 276.2 145.9 278.3 144.9"/><polygon class="cls-4" points="278.3 144.9 276.6 146.1 276 145.3 278.3 144.9"/><polygon class="cls-4" points="274.3 144.9 276 146.1 276.6 145.3 274.3 144.9"/><polygon class="cls-4" points="274.3 144.9 276.4 144.9 276.4 145.9 274.3 144.9"/><polygon class="cls-4" points="277.6 147.3 276.9 145.2 275.9 145.6 277.6 147.3"/><polygon class="cls-4" points="277.6 147.3 275.8 146 276.5 145.1 277.6 147.3"/><polygon class="cls-4" points="275.1 147.3 276.8 146 276.2 145.1 275.1 147.3"/><polygon class="cls-4" points="275.1 147.3 275.7 145.2 276.7 145.6 275.1 147.3"/><polygon class="cls-4" points="256 179.6 255 182.7 256.5 183.2 256 179.6"/><polygon class="cls-4" points="256 179.6 257 182.7 255.5 183.2 256 179.6"/><polygon class="cls-4" points="259 181.8 255.8 181.8 255.8 183.4 259 181.8"/><polygon class="cls-4" points="259 181.8 256.5 183.7 255.5 182.4 259 181.8"/><polygon class="cls-4" points="253 181.8 255.5 183.7 256.5 182.4 253 181.8"/><polygon class="cls-4" points="253 181.8 256.2 181.8 256.2 183.4 253 181.8"/><polygon class="cls-4" points="257.9 185.4 256.9 182.4 255.4 182.9 257.9 185.4"/><polygon class="cls-4" points="257.9 185.4 255.3 183.5 256.2 182.2 257.9 185.4"/><polygon class="cls-4" points="254.1 185.4 256.7 183.5 255.8 182.2 254.1 185.4"/><polygon class="cls-4" points="254.1 185.4 255.1 182.4 256.6 182.9 254.1 185.4"/><polygon class="cls-4" points="264.6 165.3 263.8 167.8 265.1 168.3 264.6 165.3"/><polygon class="cls-4" points="264.6 165.3 265.5 167.8 264.2 168.3 264.6 165.3"/><polygon class="cls-4" points="267.2 167.2 264.5 167.2 264.5 168.5 267.2 167.2"/><polygon class="cls-4" points="267.2 167.2 265 168.7 264.2 167.6 267.2 167.2"/><polygon class="cls-4" points="262.1 167.2 264.3 168.7 265 167.6 262.1 167.2"/><polygon class="cls-4" points="262.1 167.2 264.8 167.2 264.8 168.5 262.1 167.2"/><polygon class="cls-4" points="266.2 170.1 265.4 167.6 264.1 168 266.2 170.1"/><polygon class="cls-4" points="266.2 170.1 264 168.6 264.8 167.5 266.2 170.1"/><polygon class="cls-4" points="263.1 170.1 265.2 168.6 264.4 167.5 263.1 170.1"/><polygon class="cls-4" points="263.1 170.1 263.9 167.6 265.2 168 263.1 170.1"/><polygon class="cls-4" points="256 158.6 255.2 161.2 256.4 161.6 256 158.6"/><polygon class="cls-4" points="256 158.6 256.8 161.2 255.6 161.6 256 158.6"/><polygon class="cls-4" points="258.5 160.5 255.9 160.5 255.9 161.8 258.5 160.5"/><polygon class="cls-4" points="258.5 160.5 256.4 162 255.6 160.9 258.5 160.5"/><polygon class="cls-4" points="253.5 160.5 255.6 162 256.4 160.9 253.5 160.5"/><polygon class="cls-4" points="253.5 160.5 256.1 160.5 256.1 161.8 253.5 160.5"/><polygon class="cls-4" points="257.6 163.4 256.7 160.9 255.5 161.3 257.6 163.4"/><polygon class="cls-4" points="257.6 163.4 255.4 161.9 256.2 160.8 257.6 163.4"/><polygon class="cls-4" points="254.4 163.4 256.6 161.9 255.8 160.8 254.4 163.4"/><polygon class="cls-4" points="254.4 163.4 255.3 160.9 256.5 161.3 254.4 163.4"/><polygon class="cls-4" points="248.5 165.9 247.8 167.9 248.8 168.2 248.5 165.9"/><polygon class="cls-4" points="248.5 165.9 249.1 167.9 248.1 168.2 248.5 165.9"/><polygon class="cls-4" points="250.5 167.3 248.4 167.3 248.4 168.4 250.5 167.3"/><polygon class="cls-4" points="250.5 167.3 248.8 168.6 248.2 167.7 250.5 167.3"/><polygon class="cls-4" points="246.5 167.3 248.2 168.6 248.8 167.7 246.5 167.3"/><polygon class="cls-4" points="246.5 167.3 248.6 167.3 248.6 168.4 246.5 167.3"/><polygon class="cls-4" points="249.7 169.7 249.1 167.7 248.1 168 249.7 169.7"/><polygon class="cls-4" points="249.7 169.7 248 168.5 248.6 167.6 249.7 169.7"/><polygon class="cls-4" points="247.2 169.7 249 168.5 248.3 167.6 247.2 169.7"/><polygon class="cls-4" points="247.2 169.7 247.9 167.7 248.9 168 247.2 169.7"/><polygon class="cls-4" points="252.2 171.6 251.8 173.1 252.5 173.3 252.2 171.6"/><polygon class="cls-4" points="252.2 171.6 252.7 173.1 252 173.3 252.2 171.6"/><polygon class="cls-4" points="253.7 172.7 252.2 172.7 252.2 173.5 253.7 172.7"/><polygon class="cls-4" points="253.7 172.7 252.5 173.6 252 173 253.7 172.7"/><polygon class="cls-4" points="250.8 172.7 252 173.6 252.5 173 250.8 172.7"/><polygon class="cls-4" points="250.8 172.7 252.3 172.7 252.3 173.5 250.8 172.7"/><polygon class="cls-4" points="253.1 174.4 252.7 172.9 251.9 173.2 253.1 174.4"/><polygon class="cls-4" points="253.1 174.4 251.9 173.5 252.4 172.9 253.1 174.4"/><polygon class="cls-4" points="251.3 174.4 252.6 173.5 252.1 172.9 251.3 174.4"/><polygon class="cls-4" points="251.3 174.4 251.8 172.9 252.5 173.2 251.3 174.4"/><polygon class="cls-4" points="278.4 196.9 277.5 199.5 278.8 199.9 278.4 196.9"/><polygon class="cls-4" points="278.4 196.9 279.2 199.5 277.9 199.9 278.4 196.9"/><polygon class="cls-4" points="280.9 198.7 278.2 198.7 278.2 200.1 280.9 198.7"/><polygon class="cls-4" points="280.9 198.7 278.7 200.3 277.9 199.2 280.9 198.7"/><polygon class="cls-4" points="275.8 198.7 278 200.3 278.8 199.2 275.8 198.7"/><polygon class="cls-4" points="275.8 198.7 278.5 198.7 278.5 200.1 275.8 198.7"/><polygon class="cls-4" points="279.9 201.7 279.1 199.2 277.8 199.6 279.9 201.7"/><polygon class="cls-4" points="279.9 201.7 277.8 200.2 278.5 199.1 279.9 201.7"/><polygon class="cls-4" points="276.8 201.7 278.9 200.2 278.2 199.1 276.8 201.7"/><polygon class="cls-4" points="276.8 201.7 277.6 199.2 278.9 199.6 276.8 201.7"/><polygon class="cls-4" points="284.7 190.8 284.1 192.9 285.1 193.2 284.7 190.8"/><polygon class="cls-4" points="284.7 190.8 285.4 192.9 284.4 193.2 284.7 190.8"/><polygon class="cls-4" points="286.8 192.3 284.6 192.3 284.6 193.4 286.8 192.3"/><polygon class="cls-4" points="286.8 192.3 285.1 193.6 284.4 192.7 286.8 192.3"/><polygon class="cls-4" points="282.7 192.3 284.4 193.6 285.1 192.7 282.7 192.3"/><polygon class="cls-4" points="282.7 192.3 284.9 192.3 284.9 193.4 282.7 192.3"/><polygon class="cls-4" points="286 194.7 285.3 192.7 284.3 193 286 194.7"/><polygon class="cls-4" points="286 194.7 284.3 193.5 284.9 192.6 286 194.7"/><polygon class="cls-4" points="283.5 194.7 285.2 193.5 284.6 192.6 283.5 194.7"/><polygon class="cls-4" points="283.5 194.7 284.2 192.7 285.2 193 283.5 194.7"/><polygon class="cls-4" points="272.5 189 271.8 191 272.8 191.4 272.5 189"/><polygon class="cls-4" points="272.5 189 273.1 191 272.1 191.4 272.5 189"/><polygon class="cls-4" points="274.5 190.5 272.4 190.5 272.4 191.6 274.5 190.5"/><polygon class="cls-4" points="274.5 190.5 272.8 191.7 272.1 190.9 274.5 190.5"/><polygon class="cls-4" points="270.4 190.5 272.2 191.7 272.8 190.9 270.4 190.5"/><polygon class="cls-4" points="270.4 190.5 272.6 190.5 272.6 191.6 270.4 190.5"/><polygon class="cls-4" points="273.7 192.9 273.1 190.8 272 191.2 273.7 192.9"/><polygon class="cls-4" points="273.7 192.9 272 191.6 272.6 190.8 273.7 192.9"/><polygon class="cls-4" points="271.2 192.9 272.9 191.6 272.3 190.8 271.2 192.9"/><polygon class="cls-4" points="271.2 192.9 271.9 190.8 272.9 191.2 271.2 192.9"/><polygon class="cls-4" points="226 185.7 225.1 188.7 226.6 189.3 226 185.7"/><polygon class="cls-4" points="226 185.7 227 188.7 225.5 189.3 226 185.7"/><polygon class="cls-4" points="229.1 187.9 225.9 187.9 225.9 189.5 229.1 187.9"/><polygon class="cls-4" points="229.1 187.9 226.5 189.8 225.6 188.5 229.1 187.9"/><polygon class="cls-4" points="223 187.9 225.6 189.8 226.5 188.5 223 187.9"/><polygon class="cls-4" points="223 187.9 226.2 187.9 226.2 189.5 223 187.9"/><polygon class="cls-4" points="227.9 191.5 226.9 188.5 225.4 189 227.9 191.5"/><polygon class="cls-4" points="227.9 191.5 225.3 189.6 226.3 188.3 227.9 191.5"/><polygon class="cls-4" points="224.1 191.5 226.7 189.6 225.8 188.3 224.1 191.5"/><polygon class="cls-4" points="224.1 191.5 225.1 188.5 226.7 189 224.1 191.5"/><polygon class="cls-4" points="256 206.6 255.7 207.7 256.2 207.8 256 206.6"/><polygon class="cls-4" points="256 206.6 256.3 207.7 255.8 207.8 256 206.6"/><polygon class="cls-4" points="257 207.4 255.9 207.4 255.9 207.9 257 207.4"/><polygon class="cls-4" points="257 207.4 256.2 208 255.8 207.6 257 207.4"/><polygon class="cls-4" points="255 207.4 255.9 208 256.2 207.6 255 207.4"/><polygon class="cls-4" points="255 207.4 256.1 207.4 256.1 207.9 255 207.4"/><polygon class="cls-4" points="256.6 208.6 256.3 207.6 255.8 207.7 256.6 208.6"/><polygon class="cls-4" points="256.6 208.6 255.8 207.9 256.1 207.5 256.6 208.6"/><polygon class="cls-4" points="255.4 208.6 256.2 207.9 255.9 207.5 255.4 208.6"/><polygon class="cls-4" points="255.4 208.6 255.7 207.6 256.2 207.7 255.4 208.6"/></svg>