<svg id="Layer_1" data-name="Layer 1" xmlns="http://www.w3.org/2000/svg" viewBox="0 0 49.25 49.25"><title>instagramsvg</title><polygon fill="#d9c4b0" points="34.79 19.23 34.79 15.29 34.79 14.7 34.2 14.7 30.25 14.71 30.27 19.25 34.79 19.23"/><path fill="#d9c4b0" d="M28.23,34.87a4.72,4.72,0,0,0,4.71-4.71,4.71,4.71,0,0,0-8.54-2.75,4.71,4.71,0,0,0,3.83,7.46Z" transform="translate(-3.72 -5.16)"/><path fill="#d9c4b0" d="M28.35,5.16A24.63,24.63,0,1,0,53,29.78,24.63,24.63,0,0,0,28.35,5.16ZM41.61,27.41v11a5.18,5.18,0,0,1-5.17,5.17H20a5.18,5.18,0,0,1-5.17-5.17V21.94A5.18,5.18,0,0,1,20,16.77H36.44a5.18,5.18,0,0,1,5.17,5.17Z" transform="translate(-3.72 -5.16)"/><path fill="#d9c4b0" d="M35.54,30.16a7.32,7.32,0,1,1-14.1-2.75h-4v11A2.56,2.56,0,0,0,20,40.93H36.44A2.56,2.56,0,0,0,39,38.37v-11H35A7.17,7.17,0,0,1,35.54,30.16Z" transform="translate(-3.72 -5.16)"/></svg>