<svg id="Layer_1" data-name="Layer 1" xmlns="http://www.w3.org/2000/svg" xmlns:xlink="http://www.w3.org/1999/xlink" viewBox="0 0 364.84 110.06"><defs><style>
    .cls-3, .cls-5, .cls-7, .cls-9, .cls-11, .cls-13, .cls-15 {
        fill: #fff !important;
    }
 .cls-1{fill:none;}.cls-2{clip-path:url(#clip-path);}.cls-3{fill:url(#linear-gradient);}.cls-4{clip-path:url(#clip-path-2);}.cls-5{fill:url(#linear-gradient-2);}.cls-6{clip-path:url(#clip-path-3);}.cls-7{fill:url(#linear-gradient-3);}.cls-8{clip-path:url(#clip-path-4);}.cls-9{fill:url(#linear-gradient-4);}.cls-10{clip-path:url(#clip-path-5);}.cls-11{fill:url(#linear-gradient-5);}.cls-12{clip-path:url(#clip-path-6);}.cls-13{fill:url(#linear-gradient-6);}.cls-14{clip-path:url(#clip-path-7);}.cls-15{fill:url(#linear-gradient-7);}.cls-16,.cls-17{fill:#fff;}.cls-16{fill-rule:evenodd;}
 </style>
 <clipPath id="clip-path" transform="translate(-132.53 -167.26)"><path class="cls-1" d="M170.34,220.46a20.8,20.8,0,0,0-1.43-2.29Zm-16.62-8.21a1.46,1.46,0,0,1-.78-1.34V174.38a1.33,1.33,0,0,1,.9-1.34,33.34,33.34,0,0,1,7.48-.67c12,0,19.32,8.37,19.32,22.34,0,8.49-2.9,14.52-6.81,17.21-2.57,1.78-5.7,2.12-8.38,2.12C160.54,214,155.4,213.26,153.72,212.25Zm-5-43.12c-.56,0-7.6-.34-12.63-.34-1.23,0-1.78.23-1.78.9,0,.44.44.66.89.66a21.12,21.12,0,0,1,3.79.34c3.69.78,4.58,2.57,4.81,6.36.22,3.58.22,6.72.22,24.14v19.66c0,10.72,0,19.55-.55,24.24-.45,3.24-1,5.7-3.25,6.15a17.38,17.38,0,0,1-3.35.44c-.67,0-.89.34-.89.67,0,.67.56.9,1.78.9,3.36,0,10.4-.34,10.51-.34.56,0,7.59.34,13.73.34,1.24,0,1.79-.34,1.79-.9,0-.33-.22-.67-.88-.67a49.72,49.72,0,0,1-5-.44c-3.35-.45-4-2.91-4.35-6.15-.56-4.69-.56-13.52-.56-24.24v-2.68c0-.56.22-.9.78-.9l13.74.23a1.78,1.78,0,0,1,1.45.67,18.84,18.84,0,0,1,1.43,2.3h0c.26.47.54,1,.83,1.55,2.19,4.16,5.17,10.47,7.79,15.44.75,1.43,1.47,2.74,2.12,3.84,5.38,9.09,13.42,23.34,18.24,26l.09.05c2.91,1.57,5.69,2.12,12,2.12h7.93c2,0,2.69-.22,2.69-.89,0-.33-.45-.67-1-.67a26.43,26.43,0,0,1-4.36-.34c-2.79-.44-7.59-1.67-13.63-8-6.48-6.93-21.53-34.78-26.47-44.85,10.06-9.27,13.52-17.53,13.52-25.8a19.52,19.52,0,0,0-7.71-15.19c-5.92-4.25-13.41-4.92-20.44-4.92C158.41,168.79,149.93,169.13,148.7,169.13Z"/></clipPath><linearGradient id="linear-gradient" x1="242.56" y1="221.4" x2="242.56" y2="87.13" gradientTransform="matrix(0, 0.75, 0.75, 0, 59.29, 37.22)" gradientUnits="userSpaceOnUse"><stop offset="0" stop-color="#b79d33"/><stop offset="0.78" stop-color="#ede2c0"/><stop offset="1" stop-color="#cfbb6c"/></linearGradient><clipPath id="clip-path-2" transform="translate(-132.53 -167.26)"><path class="cls-1" d="M207.61,212.77l6.54-18.56q.6-1.56,1.2,0l6.93,18.56c.08.32.08.48-.24.48H207.86C207.61,213.25,207.54,213.09,207.61,212.77ZM214.23,185l-16.49,42.4c-1.36,3.42-2.71,5.81-5.9,6.21a19.32,19.32,0,0,1-2.07.16.62.62,0,0,0-.64.55c0,.41.48.57,1.35.57,2.87,0,6.38-.24,7.1-.24s4.62.24,6.3.24c.63,0,1-.16,1-.57s-.16-.55-.72-.55h-.64c-1.19,0-2.39-.48-2.39-1.83a13.9,13.9,0,0,1,1-4.54l4-10.84a.74.74,0,0,1,.72-.56h16.18c.39,0,.47.08.63.4L230,232a1.28,1.28,0,0,1-.64,1.83c-.32.16-.47.16-.47.48s1.11.4,2.46.48c4.86.16,10,.16,11.08.16.79,0,1.59-.16,1.59-.57s-.48-.55-.88-.55a9.66,9.66,0,0,1-2.78-.4c-1.52-.48-3.43-1.35-6-7.41-4.3-10.28-15.54-38.25-16.81-41.12-.72-1.51-1-2.47-1.67-2.47C215.43,182.41,215.11,182.81,214.23,185Z"/></clipPath><linearGradient id="linear-gradient-2" x1="293.57" y1="203.24" x2="293.57" y2="133.22" gradientTransform="matrix(0, 0.75, 0.75, 0, 86.6, -11.51)" xlink:href="#linear-gradient"/><clipPath id="clip-path-3" transform="translate(-132.53 -167.26)"><path class="cls-1" d="M289.45,183.85c-.4,0-4.46-.16-7.57-.16-.8,0-1.11.16-1.11.56a.59.59,0,0,0,.55.56,22.53,22.53,0,0,1,2.39.15c2.31.33,2.71,1.6,2.79,3.75s.16,4.06.16,14.58v8.53c0,6.93-.72,12.51-4,16.41A14.36,14.36,0,0,1,271.84,233c-4,0-7-.56-10.44-3.66-3-2.71-5.18-6.78-5.18-16.58v-9.48c0-10.52,0-12.43.16-14.58s.56-3.42,2.39-3.75a8.67,8.67,0,0,1,1.75-.15.69.69,0,0,0,.64-.56c0-.4-.4-.56-1.2-.56-2.07,0-6.45.16-7.08.16s-4.86-.16-8.06-.16c-.79,0-1.11.16-1.11.56a.68.68,0,0,0,.56.56,22.53,22.53,0,0,1,2.39.15c2.31.33,2.71,1.6,2.87,3.75s.15,4.06.15,14.58v10c0,9.88,2.72,14.58,6.14,17.77,4.94,4.62,12.27,4.78,14.58,4.78,4.15,0,9.56-.56,14.67-4.94,5.57-4.78,6.53-13,6.53-20.32v-7.25c0-10.52-.08-12.43.08-14.58s.55-3.34,2.47-3.75a8.62,8.62,0,0,1,1.75-.15.6.6,0,0,0,.56-.56c0-.4-.32-.56-1.12-.56C293.27,183.69,289.93,183.85,289.45,183.85Z"/></clipPath><linearGradient id="linear-gradient-3" x1="364.93" y1="201.54" x2="364.93" y2="132.05" gradientTransform="matrix(0, 0.75, 0.75, 0, 140.25, -63.95)" xlink:href="#linear-gradient"/><clipPath id="clip-path-4" transform="translate(-132.53 -167.26)"><path class="cls-1" d="M314.7,183.85c-.4,0-4.78-.16-8-.16-.8,0-1.11.16-1.11.56a.67.67,0,0,0,.56.56,22.7,22.7,0,0,1,2.39.15c2.31.33,2.71,1.44,2.87,3.75.15,2.15.15,4.06.15,14.58v12a141.5,141.5,0,0,1-.39,14.67c-.32,2-.49,3.26-1.84,3.58a9.89,9.89,0,0,1-2.15.32.53.53,0,0,0-.55.55c0,.41.39.57,1.11.57,1.12,0,2.63-.09,4.06-.16s2.55-.08,2.87-.08c2.07,0,4.47.08,7.66.15s7.16.24,12.18.24c3.75,0,4-.24,4.46-1.83a42.49,42.49,0,0,0,1-6.77c0-.72-.16-1-.48-1s-.64.4-.72.88a8.18,8.18,0,0,1-1.67,3.83c-1.67,2-4.78,2.06-8.44,2.06-5.5,0-8.21-.48-9.33-1.59S318,225.36,318,215.4V203.29c0-10.52,0-12.43.08-14.58.15-2.39.56-3.42,2.63-3.83.8-.07,1.83-.15,2.31-.15a.59.59,0,0,0,.55-.48c0-.4-.39-.56-1.11-.56C320.28,183.69,315,183.85,314.7,183.85Z"/></clipPath><linearGradient id="linear-gradient-4" x1="435.23" y1="201.54" x2="435.23" y2="133.01" gradientTransform="matrix(0, 0.75, 0.75, 0, 191.71, -117.04)" xlink:href="#linear-gradient"/><clipPath id="clip-path-5" transform="translate(-132.53 -167.26)"><path class="cls-1" d="M357.32,183.85c-.39,0-4.77-.16-7.09-.16-.79,0-1.11.16-1.11.56a.6.6,0,0,0,.56.56,12.32,12.32,0,0,1,2.15.23c1.51.33,2.07,1.36,2.23,3.67.16,2.15.16,4.06.16,14.58v12c0,6.54-.08,11.87-.4,14.67-.24,2-.48,3.26-1.83,3.58a10,10,0,0,1-2.16.32.54.54,0,0,0-.55.55c0,.41.4.57,1.12.57,2.15,0,6.53-.24,6.92-.24s4.87.24,8.77.24c.8,0,1.12-.24,1.12-.57a.54.54,0,0,0-.56-.55,28.48,28.48,0,0,1-3.19-.32c-2.07-.32-2.31-1.59-2.55-3.58-.31-2.8-.31-8.13-.31-14.67v-12c0-10.52,0-12.43.07-14.58.16-2.39.56-3.34,2.47-3.75a8.36,8.36,0,0,1,1.76-.15.69.69,0,0,0,.56-.56c0-.4-.33-.56-1.12-.56C362.19,183.69,357.65,183.85,357.32,183.85Z"/></clipPath><linearGradient id="linear-gradient-5" x1="482.34" y1="201.54" x2="482.34" y2="133.22" gradientTransform="matrix(0, 0.75, 0.75, 0, 226.36, -152.45)" xlink:href="#linear-gradient"/><clipPath id="clip-path-6" transform="translate(-132.53 -167.26)"><path class="cls-1" d="M382.18,186.16V225c0,6.14-.23,8-2,8.45a11.08,11.08,0,0,1-2.88.4.54.54,0,0,0-.55.55c0,.48.39.57,1.11.57,3.19,0,6.14-.24,6.78-.24s3.42.24,7.41.24c.79,0,1.27-.16,1.27-.57a.54.54,0,0,0-.55-.55,16.58,16.58,0,0,1-3.51-.4c-1.91-.48-2.55-2.15-2.71-7.73l-.8-32c2.15,2.39,10,10.68,18.17,19.2,7.41,7.73,17.53,17.69,18.24,18.33,3.91,3.58,4.63,4.14,5.35,4.14.47,0,.55-.4.55-4.86l.16-39.68c0-4.06.16-5.41,2.47-5.9a8.45,8.45,0,0,1,1.67-.15.79.79,0,0,0,.8-.64c0-.4-.55-.48-1.27-.48-2.87,0-5.18.16-6,.16s-4.14-.16-7.33-.16c-.8,0-1.35.08-1.35.48,0,.24.07.64.55.64a22.14,22.14,0,0,1,3.43.31c2.15.4,2.55,1.92,2.63,6.3l.72,33.94c-2.16-2.23-9.65-10.28-16.58-17.45-10.84-11.15-21-22-22.15-23.1-.72-.72-1.91-2.08-2.71-2.08C382.58,182.73,382.18,183.45,382.18,186.16Z"/></clipPath><linearGradient id="linear-gradient-6" x1="544.74" y1="202.81" x2="544.74" y2="132.59" gradientTransform="matrix(0, 0.75, 0.75, 0, 272.11, -199.49)" xlink:href="#linear-gradient"/><clipPath id="clip-path-7" transform="translate(-132.53 -167.26)"><path class="cls-1" d="M448.16,207.35c0-14.73,8.45-22.06,20.16-22.06,11.07,0,21,8.52,21,24.78,0,19.59-12.67,22.94-19,22.94C457.64,233,448.16,223.13,448.16,207.35Zm-7.26,1.84c0,12.19,8.21,26.61,27.42,26.61,16.89,0,28.13-12.51,28.13-27.65,0-15.77-12-25.42-27.74-25.42C449.35,182.73,440.9,198.27,440.9,209.19Z"/></clipPath><linearGradient id="linear-gradient-7" x1="629.66" y1="202.81" x2="629.66" y2="132.05" gradientTransform="matrix(0, 0.75, 0.75, 0, 334.89, -262.98)" xlink:href="#linear-gradient"/></defs><title>raulino_logo</title><g class="cls-2"><rect class="cls-3" x="127.02" y="174.42" width="102.22" height="89.44" transform="translate(-176.61 226.16) rotate(-89)"/></g><g class="cls-4"><rect class="cls-5" x="189.85" y="180.77" width="53.46" height="55.81" transform="translate(-128.37 254.31) rotate(-89)"/></g><g class="cls-6"><rect class="cls-7" x="243.57" y="182.92" width="53.02" height="53.65" transform="matrix(0.02, -1, 1, 0.02, -76.87, 308.87)"/></g><g class="cls-8"><rect class="cls-9" x="296.83" y="191.73" width="51.98" height="35.31" transform="translate(-24.69 361.25) rotate(-89)"/></g><g class="cls-10"><rect class="cls-11" x="332.39" y="199.82" width="51.54" height="18.98" transform="translate(10.11 396.51) rotate(-89)"/></g><g class="cls-12"><rect class="cls-13" x="378.16" y="180.4" width="53.64" height="57.32" transform="translate(56.35 443.07) rotate(-89)"/></g><g class="cls-14"><rect class="cls-15" x="441.66" y="181.04" width="54.03" height="56.46" transform="translate(118.73 506.96) rotate(-89)"/></g><path class="cls-16" d="M248.46,265.18a11.37,11.37,0,0,1-10.15,6.2,10.87,10.87,0,0,1-8.14-3.41,11.45,11.45,0,0,1-3.38-8.26,11.34,11.34,0,0,1,11.52-11.46A11.67,11.67,0,0,1,244.4,250a11.45,11.45,0,0,1,4.06,4.45h-2.52a9.34,9.34,0,0,0-14.23-1.27A9.08,9.08,0,0,0,229,259.6a9.22,9.22,0,0,0,2.67,6.8A9.36,9.36,0,0,0,246,265.18Z" transform="translate(-132.53 -167.26)"/><path class="cls-16" d="M253.91,252.38h-2.18v-3.87h2.18Zm0,18.56h-2.18V254.35h2.18Z" transform="translate(-132.53 -167.26)"/><path class="cls-16" d="M261.42,270.94h-2.33V254.35h2.07v2.36a4.93,4.93,0,0,1,2.06-2.06,5.09,5.09,0,0,1,2.57-.61v2.21a4,4,0,0,0-2.51.84,5.82,5.82,0,0,0-1.3,1.37,5,5,0,0,0-.56,2.56Z" transform="translate(-132.53 -167.26)"/><path class="cls-16" d="M285.07,263.81a7.37,7.37,0,0,1-2.09,5.38,6.94,6.94,0,0,1-5.23,2.16,7,7,0,0,1-5.27-2.16,7.47,7.47,0,0,1-2.07-5.38v-9.46h2.24v9.72a4.87,4.87,0,0,0,1.52,3.61,5,5,0,0,0,3.58,1.48,5.17,5.17,0,0,0,5.09-5.09v-9.72h2.23Z" transform="translate(-132.53 -167.26)"/><path class="cls-16" d="M292.61,270.94h-2.32V254.35h2.06v2.36a5,5,0,0,1,2.07-2.06A5,5,0,0,1,297,254v2.21a4,4,0,0,0-2.5.84,5.9,5.9,0,0,0-1.31,1.37,5,5,0,0,0-.56,2.56Z" transform="translate(-132.53 -167.26)"/><path class="cls-16" d="M318.66,270.15a6.41,6.41,0,0,1-2.59,5.21,9,9,0,0,1-11,.15,7.85,7.85,0,0,1-2.74-4.16h2.15a5.57,5.57,0,0,0,2.22,2.94,6.15,6.15,0,0,0,3.75,1.25,6.08,6.08,0,0,0,4.22-1.72,5.28,5.28,0,0,0,1.8-4v-1.56a8.23,8.23,0,0,1-6.11,2.93,8,8,0,0,1-6.16-2.47,8.64,8.64,0,0,1-2.59-6.26,8.59,8.59,0,0,1,8.26-8.67,8.76,8.76,0,0,1,8.79,8.71Zm-4.11-3a6.46,6.46,0,0,0,1.86-4.48,6.29,6.29,0,0,0-1.86-4.77,5.75,5.75,0,0,0-4.66-1.93,6.08,6.08,0,0,0-4.33,2.1,6.38,6.38,0,0,0-1.74,4.56,6.28,6.28,0,0,0,1.91,4.52,6.1,6.1,0,0,0,4.49,1.86A5.72,5.72,0,0,0,314.55,267.16Z" transform="translate(-132.53 -167.26)"/><path class="cls-16" d="M326.07,252.38h-2.18v-3.87h2.18Zm0,18.56h-2.18V254.35h2.18Z" transform="translate(-132.53 -167.26)"/><path class="cls-16" d="M348.45,270.94H346.3v-2.59a8.09,8.09,0,0,1-6.64,3,8.18,8.18,0,0,1-5.84-2.65,8.74,8.74,0,0,1,.17-12.25,8,8,0,0,1,6.2-2.47,8.27,8.27,0,0,1,5.93,2.68,7.89,7.89,0,0,1,2.33,6Zm-14.81-8.47a6.4,6.4,0,0,0,1.72,4.6,6.05,6.05,0,0,0,4.34,2.06,5.78,5.78,0,0,0,4.65-1.89,6.68,6.68,0,0,0,0-9.28A5.79,5.79,0,0,0,340,256.1a6.08,6.08,0,0,0-4.5,1.86A6.23,6.23,0,0,0,333.64,262.47Z" transform="translate(-132.53 -167.26)"/><path class="cls-16" d="M373.48,270.94h-2.33V248.57h7.19a7.94,7.94,0,0,1,5.52,2,6.22,6.22,0,0,1,2.15,5,6.09,6.09,0,0,1-2.08,4.6A7,7,0,0,1,379,262h-5.56ZM378.6,260a5.13,5.13,0,0,0,3.63-1.34,4.16,4.16,0,0,0,1.48-3.61,4,4,0,0,0-1.65-3.14,5.53,5.53,0,0,0-3.61-1.25h-5V260Z" transform="translate(-132.53 -167.26)"/><rect class="cls-17" x="257.68" y="81.25" width="2.21" height="22.43"/><path class="cls-16" d="M414.85,270.94H412.7v-2.59a8.09,8.09,0,0,1-6.63,3,8.2,8.2,0,0,1-5.85-2.65,8.74,8.74,0,0,1,.17-12.25,8,8,0,0,1,6.2-2.47,8.29,8.29,0,0,1,5.93,2.68,7.85,7.85,0,0,1,2.33,6Zm-14.8-8.47a6.43,6.43,0,0,0,1.71,4.6,6,6,0,0,0,4.33,2.06,5.78,5.78,0,0,0,4.66-1.89,6.51,6.51,0,0,0,1.89-4.79,6.43,6.43,0,0,0-1.86-4.49,5.77,5.77,0,0,0-4.33-1.86,6.1,6.1,0,0,0-4.51,1.86A6.26,6.26,0,0,0,400.05,262.47Z" transform="translate(-132.53 -167.26)"/><path class="cls-16" d="M422.39,266.58a2.6,2.6,0,0,0,.93,1.74,2.63,2.63,0,0,0,2,.87,3.11,3.11,0,0,0,2.21-.84,2.81,2.81,0,0,0,.76-2c0-1.43-.79-2.39-2.41-2.91l-2-.61a4.2,4.2,0,0,1-3.19-4.16,4.14,4.14,0,0,1,1.27-3.28,5,5,0,0,1,3.35-1.46,4.57,4.57,0,0,1,3.15,1.1,4,4,0,0,1,1.59,2.91l0,.5h-2.33v-.38a2.22,2.22,0,0,0-2.44-1.95A2.35,2.35,0,0,0,423,258.4c-.08,1.2.64,2,2.13,2.53l1.91.64A4.76,4.76,0,0,1,430.6,266a4.7,4.7,0,0,1-1.57,3.9,5.34,5.34,0,0,1-4,1.49,5.15,5.15,0,0,1-3.52-1.69A5.25,5.25,0,0,1,420.1,266h2.29Z" transform="translate(-132.53 -167.26)"/><path class="cls-16" d="M441.71,271.29c-4,0-6-1.72-6-5.15v-17.6h2.25v5.79h3.8v2.06h-3.8v9.37c0,2.48,1.27,3.7,3.8,3.7Z" transform="translate(-132.53 -167.26)"/><path class="cls-16" d="M448.76,252.38h-2.19v-3.87h2.19Zm0,18.56h-2.19V254.35h2.19Z" transform="translate(-132.53 -167.26)"/><path class="cls-16" d="M471.07,266.55a8.51,8.51,0,0,1-8.09,4.77,8.92,8.92,0,0,1-6.22-2.53,8.5,8.5,0,0,1-.09-12.25,9.12,9.12,0,0,1,11.21-1.28,7.87,7.87,0,0,1,3.08,3.37l.32.73h-2.5a6.6,6.6,0,0,0-10.3-1.43,6.17,6.17,0,0,0-2.13,4.69,6.62,6.62,0,0,0,6.66,6.54,6.47,6.47,0,0,0,5.79-3.11h2.5Z" transform="translate(-132.53 -167.26)"/><path class="cls-16" d="M492.4,270.94h-2.15v-2.59a8.11,8.11,0,0,1-6.63,3,8.2,8.2,0,0,1-5.85-2.65,8.77,8.77,0,0,1,.17-12.25,8,8,0,0,1,6.2-2.47,8.33,8.33,0,0,1,5.94,2.68,7.92,7.92,0,0,1,2.32,6Zm-14.81-8.47a6.49,6.49,0,0,0,1.72,4.6,6,6,0,0,0,4.33,2.06,5.78,5.78,0,0,0,4.66-1.89,6.51,6.51,0,0,0,1.89-4.79,6.44,6.44,0,0,0-1.87-4.49A5.75,5.75,0,0,0,484,256.1a6.12,6.12,0,0,0-4.52,1.86A6.26,6.26,0,0,0,477.59,262.47Z" transform="translate(-132.53 -167.26)"/><polygon class="cls-16" points="275.89 85.19 273.08 85.19 276.83 81.23 279.63 81.23 275.89 85.19"/></svg>