<svg id="Layer_1" data-name="Layer 1" xmlns="http://www.w3.org/2000/svg" viewBox="0 0 243.49 243.5"><defs><style>.cls-1{fill:none;stroke:#d9c4b0;stroke-miterlimit:10;stroke-width:2.5px;}.cls-2{font-size:17.9px;fill:#d9c5b0;font-family:Calibri-Bold, Calibri;font-weight:700;}</style></defs><title>selo_2</title><circle class="cls-1" cx="121.76" cy="121.06" r="54.83"/><circle class="cls-1" cx="121.76" cy="121.75" r="23.61"/><text class="cls-2" transform="matrix(0.35, -0.94, 0.94, 0.35, 43.57, 96.56)">L</text><text class="cls-2" transform="matrix(0.42, -0.91, 0.91, 0.42, 46.19, 89.67)">I</text><text class="cls-2" transform="translate(48 85.46) rotate(-60.54)">P</text><text class="cls-2" transform="translate(52.42 77.41) rotate(-53.19)">O</text><text class="cls-2" transform="translate(59.69 68.01) rotate(-47.67)"> </text><text class="cls-2" transform="translate(62.33 65.11) rotate(-44.92)"> </text><text class="cls-2" transform="translate(64.89 62.28) rotate(-39.59)">U</text><text class="cls-2" transform="translate(73.75 55.09) rotate(-33.08)">L</text><text class="cls-2" transform="translate(78.76 51.72) rotate(-28.45)">T</text><text class="cls-2" transform="translate(86.3 47.58) rotate(-22.06)">R</text><text class="cls-2" transform="matrix(0.97, -0.26, 0.26, 0.97, 95.32, 43.88)">A</text><text class="cls-2" transform="translate(105.47 41.11) rotate(-7.53)">H</text><text class="cls-2" transform="translate(116.31 39.66) rotate(0.15)">D</text><text class="cls-2" transform="translate(127.34 39.84) rotate(5.37)"> </text><text class="cls-2" transform="translate(131.29 40.21) rotate(8.15)"> </text><text class="cls-2" transform="translate(135.08 40.56) rotate(13.45)">U</text><text class="cls-2" transform="translate(146.12 43.19) rotate(21.16)">G</text><text class="cls-2" transform="translate(156.45 47.21) rotate(28.4)">R</text><text class="cls-2" transform="translate(165.06 51.81) rotate(35.53)">A</text><text class="cls-2" transform="translate(173.6 57.98) rotate(42.01)">F</text><text class="cls-2" transform="translate(179.52 63.28) rotate(47.8)">T</text><text class="cls-2" transform="translate(185.29 69.77) rotate(52.18)"> </text><text class="cls-2" transform="matrix(0.57, 0.82, -0.82, 0.57, 187.72, 72.88)"> </text><text class="cls-2" transform="matrix(0.53, 0.84, -0.84, 0.53, 189.99, 76.11)"> </text><text class="cls-2" transform="translate(192.1 79.44) rotate(60.4)"> </text><text class="cls-2" transform="matrix(0.45, 0.89, -0.89, 0.45, 194.04, 82.86)"> </text><text class="cls-2" transform="translate(195.85 86.29) rotate(67.04)">L</text><text class="cls-2" transform="translate(198.7 93.12) rotate(71.21)">I</text><text class="cls-2" transform="translate(200.27 97.39) rotate(76.03)">P</text><text class="cls-2" transform="translate(202.59 106.31) rotate(83.37)">O</text><text class="cls-2" transform="matrix(0.02, 1, -1, 0.02, 203.78, 118.1)"> </text><text class="cls-2" transform="matrix(-0.07, 1, -1, -0.07, 204.05, 121.9)">U</text><text class="cls-2" transform="matrix(-0.19, 0.98, -0.98, -0.19, 203.11, 133.25)">L</text><text class="cls-2" transform="translate(202.06 139.24) rotate(105.42)">T</text><text class="cls-2" transform="matrix(-0.37, 0.93, -0.93, -0.37, 199.82, 147.52)">R</text><text class="cls-2" transform="translate(196.26 156.59) rotate(118.79)">A</text><text class="cls-2" transform="matrix(-0.59, 0.81, -0.81, -0.59, 191.22, 165.83)">H</text><text class="cls-2" transform="matrix(-0.69, 0.72, -0.72, -0.69, 184.77, 174.65)">D</text><text class="cls-2" transform="matrix(-0.76, 0.65, -0.65, -0.76, 176.97, 182.5)"> </text><text class="cls-2" transform="translate(174 185.07) rotate(141.94)"> </text><text class="cls-2" transform="translate(171.1 187.58) rotate(147.26)">U</text><text class="cls-2" transform="matrix(-0.91, 0.42, -0.42, -0.91, 161.58, 193.72)">G</text><text class="cls-2" transform="translate(151.52 198.39) rotate(162.24)">R</text><text class="cls-2" transform="matrix(-0.98, 0.19, -0.19, -0.98, 142.26, 201.4)">A</text><text class="cls-2" transform="translate(131.86 203.3) rotate(175.78)">F</text><text class="cls-2" transform="translate(123.94 203.92) rotate(-178.41)">T</text><text class="cls-2" transform="translate(115.28 203.59) rotate(-174.01)"> </text><text class="cls-2" transform="translate(111.36 203.18) rotate(-171.24)"> </text><text class="cls-2" transform="translate(107.47 202.59) rotate(-168.49)"> </text><text class="cls-2" transform="translate(103.61 201.8) rotate(-165.76)"> </text><text class="cls-2" transform="translate(99.76 200.83) rotate(-163.03)"> </text><text class="cls-2" transform="matrix(-0.93, -0.36, 0.36, -0.93, 96.04, 199.76)">L</text><text class="cls-2" transform="translate(89.14 197.09) rotate(-155)">I</text><text class="cls-2" transform="translate(84.95 195.26) rotate(-150.14)">P</text><text class="cls-2" transform="matrix(-0.8, -0.6, 0.6, -0.8, 76.94, 190.78)">O</text><text class="cls-2" transform="translate(67.59 183.45) rotate(-137.27)"> </text><text class="cls-2" transform="translate(64.71 180.79) rotate(-134.52)"> </text><text class="cls-2" transform="matrix(-0.63, -0.77, 0.77, -0.63, 61.91, 178.21)">U</text><text class="cls-2" transform="translate(54.77 169.31) rotate(-122.7)">L</text><text class="cls-2" transform="translate(51.44 164.27) rotate(-118.06)">T</text><text class="cls-2" transform="translate(47.35 156.7) rotate(-111.68)">R</text><text class="cls-2" transform="translate(43.71 147.66) rotate(-104.64)">A</text><text class="cls-2" transform="translate(41.01 137.49) rotate(-97.13)">H</text><text class="cls-2" transform="translate(39.63 126.63) rotate(-89.45)">D</text><text class="cls-2" transform="translate(39.89 115.59) rotate(-84.23)"> </text></svg>