<svg id="b06d50eb-54a1-477e-991d-44dcae8ba4bb" data-name="Layer 1" xmlns="http://www.w3.org/2000/svg" viewBox="0 0 186.31 186.8"><title>selo_3</title><circle cx="92.81" cy="92.65" r="54.83" fill="none" stroke="#d9c4b0" stroke-miterlimit="10" stroke-width="1.5"/><circle cx="92.81" cy="93.34" r="23.61" fill="none" stroke="#d9c4b0" stroke-miterlimit="10" stroke-width="1.5"/><path d="M18.78,62.61l.27.12.17.12a.25.25,0,0,1,.07.28l-1.75,4.68a.6.6,0,0,1-.26.31.56.56,0,0,1-.51,0L7,64.47a.31.31,0,0,1-.11-.08.26.26,0,0,1,0-.14,1.29,1.29,0,0,1,0-.24A2.28,2.28,0,0,1,7,63.66c0-.13.1-.24.14-.33l.14-.2a.26.26,0,0,1,.11-.08.19.19,0,0,1,.13,0l9.17,3.41,1.42-3.8a.15.15,0,0,1,.08-.11.22.22,0,0,1,.14-.05.7.7,0,0,1,.2,0Z" transform="translate(-2.19 -1.58)" fill="#d9c5b0"/><path d="M20.47,60a.39.39,0,0,1,.1.08.24.24,0,0,1,0,.15.8.8,0,0,1-.05.23,1.65,1.65,0,0,1-.13.34c-.06.13-.11.23-.16.32a2.11,2.11,0,0,1-.15.19.23.23,0,0,1-.13.08.17.17,0,0,1-.12,0L10,56.91a.2.2,0,0,1-.09-.09.23.23,0,0,1,0-.15,1.73,1.73,0,0,1,.05-.24c0-.09.07-.2.12-.32a3,3,0,0,1,.17-.32,1.14,1.14,0,0,1,.15-.19.21.21,0,0,1,.12-.08.3.3,0,0,1,.13,0Z" transform="translate(-2.19 -1.58)" fill="#d9c5b0"/><path d="M18.27,47.6a4.24,4.24,0,0,1,1.2,1,3.34,3.34,0,0,1,.62,1.27,3.66,3.66,0,0,1,0,1.48,5.49,5.49,0,0,1-.65,1.7l-.63,1.12,3.56,2a.2.2,0,0,1,.09.09.35.35,0,0,1,0,.15.9.9,0,0,1-.07.22,2.18,2.18,0,0,1-.15.33c-.08.13-.14.23-.2.31a1.36,1.36,0,0,1-.16.17.21.21,0,0,1-.13.07l-.12,0-9.12-5.09a.57.57,0,0,1-.34-.4.59.59,0,0,1,.07-.43l1.18-2.11a5.61,5.61,0,0,1,.37-.6,5.44,5.44,0,0,1,.5-.64,3.58,3.58,0,0,1,.78-.63,3,3,0,0,1,2.05-.37A3.85,3.85,0,0,1,18.27,47.6Zm-.67,1.45a2.28,2.28,0,0,0-1.13-.34,1.79,1.79,0,0,0-.92.22,2.23,2.23,0,0,0-.63.55,4,4,0,0,0-.44.66l-.68,1.21,4,2.21.66-1.18a3,3,0,0,0,.4-1.07,2.07,2.07,0,0,0-.05-.9,2,2,0,0,0-.42-.77A2.62,2.62,0,0,0,17.6,49.05Z" transform="translate(-2.19 -1.58)" fill="#d9c5b0"/><path d="M27.24,38.77A8.74,8.74,0,0,1,29,40.49,5.23,5.23,0,0,1,30,42.38a4.27,4.27,0,0,1,0,2A6.51,6.51,0,0,1,27.36,48a3.94,3.94,0,0,1-1.81.58,4.6,4.6,0,0,1-2-.34A9.06,9.06,0,0,1,21.4,47a8.73,8.73,0,0,1-1.77-1.7,5.18,5.18,0,0,1-.92-1.89,4.36,4.36,0,0,1,0-2,5.82,5.82,0,0,1,1-2.07,5.71,5.71,0,0,1,1.59-1.53,3.88,3.88,0,0,1,1.8-.59,4.57,4.57,0,0,1,2,.32A8.47,8.47,0,0,1,27.24,38.77Zm-.86,1.34a8.69,8.69,0,0,0-1.54-.92,4.1,4.1,0,0,0-1.49-.4,2.8,2.8,0,0,0-1.39.3,3.42,3.42,0,0,0-1.25,1.12A3.36,3.36,0,0,0,20,41.75a3.23,3.23,0,0,0,.15,1.45,4,4,0,0,0,.8,1.32,7.53,7.53,0,0,0,1.28,1.16,9,9,0,0,0,1.57,1,4,4,0,0,0,1.5.4,2.66,2.66,0,0,0,1.38-.28A3.58,3.58,0,0,0,28,45.62a3.39,3.39,0,0,0,.68-1.55,3,3,0,0,0-.15-1.46,4.36,4.36,0,0,0-.82-1.33A8.19,8.19,0,0,0,26.38,40.11Z" transform="translate(-2.19 -1.58)" fill="#d9c5b0"/><path d="M42.52,26.36a5.4,5.4,0,0,1,1,1.6,3.64,3.64,0,0,1-.27,3.13A5.55,5.55,0,0,1,42,32.49a5.12,5.12,0,0,1-1.48.89,3.67,3.67,0,0,1-1.52.24,3.39,3.39,0,0,1-1.5-.46A5.24,5.24,0,0,1,36.08,32l-4.53-5.36a.21.21,0,0,1-.05-.12.2.2,0,0,1,0-.14,1.5,1.5,0,0,1,.14-.19,3.28,3.28,0,0,1,.26-.25l.29-.22.21-.11a.27.27,0,0,1,.15,0,.23.23,0,0,1,.1.07l4.42,5.22a4.38,4.38,0,0,0,1,.93,2.63,2.63,0,0,0,1,.38A2.36,2.36,0,0,0,40.24,32a3.1,3.1,0,0,0,1-.6,3.19,3.19,0,0,0,.77-.9,2.22,2.22,0,0,0,.29-1,2.63,2.63,0,0,0-.2-1.07,4.29,4.29,0,0,0-.72-1.14l-4.46-5.28a.18.18,0,0,1-.05-.12.2.2,0,0,1,0-.14,1.5,1.5,0,0,1,.14-.19,2.12,2.12,0,0,1,.26-.25,2.06,2.06,0,0,1,.29-.21l.2-.11A.27.27,0,0,1,38,21a.24.24,0,0,1,.11.06Z" transform="translate(-2.19 -1.58)" fill="#d9c5b0"/><path d="M51.93,24.22l.15.25a.89.89,0,0,1,.06.2.29.29,0,0,1,0,.16.31.31,0,0,1-.09.11l-4.16,2.78a.63.63,0,0,1-.39.1.55.55,0,0,1-.41-.3l-5.83-8.7a.28.28,0,0,1,0-.12.24.24,0,0,1,.06-.14.81.81,0,0,1,.16-.17,2.71,2.71,0,0,1,.29-.22L42,18l.22-.08a.19.19,0,0,1,.15,0,.25.25,0,0,1,.1.08l5.44,8.13,3.37-2.26a.25.25,0,0,1,.14,0,.27.27,0,0,1,.14,0,.83.83,0,0,1,.16.13Z" transform="translate(-2.19 -1.58)" fill="#d9c5b0"/><path d="M53.42,11.94a1.57,1.57,0,0,1,.13.26.58.58,0,0,1,.05.2.29.29,0,0,1,0,.14.28.28,0,0,1-.1.09L50.7,14.19l4.78,8.56a.18.18,0,0,1,0,.12.19.19,0,0,1-.06.13,1,1,0,0,1-.18.16,2.41,2.41,0,0,1-.31.2,3.16,3.16,0,0,1-.32.16l-.23.06a.19.19,0,0,1-.15,0,.2.2,0,0,1-.09-.09l-4.79-8.56-2.77,1.55a.24.24,0,0,1-.13,0,.39.39,0,0,1-.14-.05,1.06,1.06,0,0,1-.14-.15,1.72,1.72,0,0,1-.28-.51,1.36,1.36,0,0,1-.06-.2.33.33,0,0,1,0-.15.2.2,0,0,1,.09-.09l6.87-3.84a.28.28,0,0,1,.13,0,.3.3,0,0,1,.14,0,.71.71,0,0,1,.15.15A1.83,1.83,0,0,1,53.42,11.94Z" transform="translate(-2.19 -1.58)" fill="#d9c5b0"/><path d="M66.74,17.53a.5.5,0,0,1,0,.12.19.19,0,0,1-.07.13,1,1,0,0,1-.2.14l-.38.18-.35.13a.75.75,0,0,1-.24,0,.34.34,0,0,1-.17-.05.79.79,0,0,1-.14-.13l-2-2.05c-.23-.23-.46-.43-.68-.62a2.72,2.72,0,0,0-.68-.42,2.14,2.14,0,0,0-.76-.14,2.35,2.35,0,0,0-.87.2l-.93.4,1.89,4.43a.29.29,0,0,1,0,.13.28.28,0,0,1-.08.12,1.17,1.17,0,0,1-.19.14,2.58,2.58,0,0,1-.33.16,1.56,1.56,0,0,1-.34.12.74.74,0,0,1-.23,0,.24.24,0,0,1-.15,0,.39.39,0,0,1-.08-.1L55.7,10.84a.54.54,0,0,1,0-.51.63.63,0,0,1,.3-.28l2.21-.93a6.27,6.27,0,0,1,.66-.26l.49-.16a4.39,4.39,0,0,1,1.21-.12,2.83,2.83,0,0,1,1,.24,2.6,2.6,0,0,1,.81.59,3.26,3.26,0,0,1,.57.92,3,3,0,0,1,.26,1,2.42,2.42,0,0,1-.1.9,2.76,2.76,0,0,1-.4.83,4.5,4.5,0,0,1-.66.74,2,2,0,0,1,.59.09,2.75,2.75,0,0,1,.56.25,3.89,3.89,0,0,1,.58.41,7.71,7.71,0,0,1,.62.57L66.31,17l.32.34ZM61.55,11.1a2,2,0,0,0-.71-.92A1.72,1.72,0,0,0,59.66,10a2.67,2.67,0,0,0-.49.12c-.17.05-.4.14-.67.25l-1.17.5,1.49,3.51,1.35-.58a3.13,3.13,0,0,0,.89-.53,2,2,0,0,0,.51-.65,1.57,1.57,0,0,0,.15-.73A2.26,2.26,0,0,0,61.55,11.1Z" transform="translate(-2.19 -1.58)" fill="#d9c5b0"/><path d="M76.56,14.26a.92.92,0,0,1,.16.28.21.21,0,0,1,0,.19.47.47,0,0,1-.2.14L76.1,15l-.42.11a.79.79,0,0,1-.25,0,.29.29,0,0,1-.14,0,.57.57,0,0,1-.11-.11l-1.7-2.37L69,13.94l-.12,2.87,0,.15a.35.35,0,0,1-.1.12.5.5,0,0,1-.21.12,2.34,2.34,0,0,1-.38.13l-.4.1a.43.43,0,0,1-.24,0,.22.22,0,0,1-.11-.15,1,1,0,0,1,0-.32l.71-11.15a.34.34,0,0,1,0-.18.42.42,0,0,1,.13-.14,1.62,1.62,0,0,1,.26-.12l.41-.14.45-.11a1.24,1.24,0,0,1,.3,0,.38.38,0,0,1,.19.05.43.43,0,0,1,.14.13ZM69.29,6.72h0l-.29,6,3.78-1.1Z" transform="translate(-2.19 -1.58)" fill="#d9c5b0"/><path d="M86.24,13a.19.19,0,0,1,0,.13s0,.07-.1.1l-.22.09-.35.08-.37,0H85a.32.32,0,0,1-.13-.07.24.24,0,0,1-.06-.11l-.78-5-5.09.81L79.68,14a.27.27,0,0,1,0,.13.22.22,0,0,1-.11.1,1,1,0,0,1-.22.09l-.35.08-.36,0a.82.82,0,0,1-.24,0,.2.2,0,0,1-.13-.06.24.24,0,0,1-.06-.11L76.5,3.53a.16.16,0,0,1,0-.12.29.29,0,0,1,.11-.11l.22-.08a2.45,2.45,0,0,1,.36-.08,2.81,2.81,0,0,1,.36,0l.23,0a.23.23,0,0,1,.14.06.17.17,0,0,1,0,.12l.71,4.47L83.78,7l-.71-4.48a.24.24,0,0,1,0-.12.22.22,0,0,1,.11-.1l.22-.09a2,2,0,0,1,.36-.08l.35,0a.88.88,0,0,1,.24,0,.23.23,0,0,1,.13.06.17.17,0,0,1,.05.12Z" transform="translate(-2.19 -1.58)" fill="#d9c5b0"/><path d="M97.49,6.93a8.15,8.15,0,0,1-.31,2.58,4.88,4.88,0,0,1-1.05,1.84,4.47,4.47,0,0,1-1.75,1.12,7.77,7.77,0,0,1-2.49.43L89.5,13a.65.65,0,0,1-.39-.13.59.59,0,0,1-.19-.47L88.67,2.27a.56.56,0,0,1,.17-.48.59.59,0,0,1,.37-.14l2.56-.07a7.2,7.2,0,0,1,2.5.32A4.61,4.61,0,0,1,96,3a4.74,4.74,0,0,1,1.09,1.7A7,7,0,0,1,97.49,6.93ZM95.91,7a6.5,6.5,0,0,0-.27-1.7A3.86,3.86,0,0,0,94.89,4a3.2,3.2,0,0,0-1.25-.87,5.06,5.06,0,0,0-1.92-.28l-1.53,0,.22,8.8,1.55,0a5.27,5.27,0,0,0,1.82-.31A3,3,0,0,0,95,10.46,3.63,3.63,0,0,0,95.71,9,7.09,7.09,0,0,0,95.91,7Z" transform="translate(-2.19 -1.58)" fill="#d9c5b0"/><path d="M116.62,11.33a5.22,5.22,0,0,1-.67,1.74,3.66,3.66,0,0,1-1.12,1.16,3.61,3.61,0,0,1-1.51.56,5.76,5.76,0,0,1-3.46-.7A3.83,3.83,0,0,1,108.73,13a3.67,3.67,0,0,1-.56-1.47,5.12,5.12,0,0,1,.08-1.85l1.43-6.88a.24.24,0,0,1,.06-.11.26.26,0,0,1,.14-.06,1.75,1.75,0,0,1,.23,0,2.4,2.4,0,0,1,.71.15.65.65,0,0,1,.22.1.24.24,0,0,1,.1.1.28.28,0,0,1,0,.13l-1.38,6.69a4.51,4.51,0,0,0-.1,1.38,2.7,2.7,0,0,0,.35,1.07,2.3,2.3,0,0,0,.74.75,3.17,3.17,0,0,0,1.08.43,3.41,3.41,0,0,0,1.18,0,2.31,2.31,0,0,0,1-.39,2.63,2.63,0,0,0,.72-.82,4.49,4.49,0,0,0,.46-1.27l1.4-6.77a.24.24,0,0,1,.06-.11.26.26,0,0,1,.14-.06H117a2,2,0,0,1,.36,0,2,2,0,0,1,.34.1l.21.09a.21.21,0,0,1,.1.11.19.19,0,0,1,0,.13Z" transform="translate(-2.19 -1.58)" fill="#d9c5b0"/><path d="M129.54,9.72q-.06.15-.12.27l-.12.18a.28.28,0,0,1-.12.08h-.12a1,1,0,0,1-.27-.28,6,6,0,0,0-1.31-1.23,5.13,5.13,0,0,0-1.22-.61,4,4,0,0,0-1.7-.23,3.71,3.71,0,0,0-1.5.47,4.32,4.32,0,0,0-1.22,1.09,5.89,5.89,0,0,0-.86,1.61,5.75,5.75,0,0,0-.35,1.92A4.16,4.16,0,0,0,121,14.6a3.39,3.39,0,0,0,.91,1.24,4.28,4.28,0,0,0,1.43.82,4.46,4.46,0,0,0,1,.23,4.25,4.25,0,0,0,1.07,0l1.09-3.11L124,12.89a.25.25,0,0,1-.17-.22,1.18,1.18,0,0,1,.09-.46,1.27,1.27,0,0,1,.11-.26.5.5,0,0,1,.11-.16.46.46,0,0,1,.13-.08.32.32,0,0,1,.13,0l3.39,1.18a1,1,0,0,1,.17.1.51.51,0,0,1,.13.16.38.38,0,0,1,0,.22.58.58,0,0,1,0,.28l-1.42,4.07a.89.89,0,0,1-.21.34.68.68,0,0,1-.41.17,6.37,6.37,0,0,1-.71,0,8.38,8.38,0,0,1-.86,0,6.07,6.07,0,0,1-.87-.13q-.44-.11-.84-.24a6.45,6.45,0,0,1-2.07-1.16,4.86,4.86,0,0,1-1.27-1.67A5.2,5.2,0,0,1,119,13a7.52,7.52,0,0,1,1.61-4.5,5.39,5.39,0,0,1,1.7-1.38,5.12,5.12,0,0,1,2.07-.54,6,6,0,0,1,2.31.36,5.85,5.85,0,0,1,1.1.51,6.55,6.55,0,0,1,.87.59,4.62,4.62,0,0,1,.59.55,2.47,2.47,0,0,1,.3.42.77.77,0,0,1,.06.3A2,2,0,0,1,129.54,9.72Z" transform="translate(-2.19 -1.58)" fill="#d9c5b0"/><path d="M135.42,23.1a.44.44,0,0,1-.08.1.29.29,0,0,1-.14,0l-.25-.06-.38-.17a2.94,2.94,0,0,1-.33-.19.71.71,0,0,1-.18-.15.33.33,0,0,1-.07-.16.6.6,0,0,1,0-.19l.26-2.85c0-.33,0-.63,0-.92a2.84,2.84,0,0,0-.13-.79,1.94,1.94,0,0,0-.38-.67,2.33,2.33,0,0,0-.73-.53l-.9-.45L130,20.42a.2.2,0,0,1-.09.09.21.21,0,0,1-.14,0,1.39,1.39,0,0,1-.23-.05,2.23,2.23,0,0,1-.34-.15,1.7,1.7,0,0,1-.31-.18.71.71,0,0,1-.18-.15.21.21,0,0,1-.08-.12.27.27,0,0,1,0-.13l4.66-9.38a.55.55,0,0,1,.37-.35.6.6,0,0,1,.4.05l2.16,1.07a6.62,6.62,0,0,1,.62.33l.44.27a4.17,4.17,0,0,1,.88.84,2.6,2.6,0,0,1,.56,1.93,3.52,3.52,0,0,1-.33,1,3.2,3.2,0,0,1-.59.85,2.38,2.38,0,0,1-.75.51,2.86,2.86,0,0,1-.88.23,4.2,4.2,0,0,1-1,0,2,2,0,0,1,.32.5,2.71,2.71,0,0,1,.18.59,3.92,3.92,0,0,1,.06.71,6.21,6.21,0,0,1,0,.84l-.19,2.68a4,4,0,0,1-.06.47C135.45,23,135.43,23.06,135.42,23.1Zm1.5-8.12a2.11,2.11,0,0,0,.23-1.14,1.69,1.69,0,0,0-.6-1,2.58,2.58,0,0,0-.4-.29,6.62,6.62,0,0,0-.64-.35l-1.13-.56L132.68,15l1.32.66a3.29,3.29,0,0,0,1,.32,1.9,1.9,0,0,0,.83,0,1.47,1.47,0,0,0,.65-.35A2.44,2.44,0,0,0,136.92,15Z" transform="translate(-2.19 -1.58)" fill="#d9c5b0"/><path d="M144.31,28.46a1,1,0,0,1-.1.3.25.25,0,0,1-.16.12.42.42,0,0,1-.24-.06l-.37-.23a3.73,3.73,0,0,1-.35-.25.59.59,0,0,1-.18-.17.19.19,0,0,1-.06-.13.76.76,0,0,1,0-.15l.7-2.84-3.94-2.57-2.26,1.76a.5.5,0,0,1-.14.08.35.35,0,0,1-.15,0,1.06,1.06,0,0,1-.23-.08L136.5,24a2.37,2.37,0,0,1-.34-.24.5.5,0,0,1-.15-.2.26.26,0,0,1,.05-.18,1.23,1.23,0,0,1,.23-.22l8.93-6.71a.44.44,0,0,1,.17-.08.32.32,0,0,1,.19,0l.26.11.37.23.38.26a1.54,1.54,0,0,1,.22.2.5.5,0,0,1,.09.18.41.41,0,0,1,0,.19Zm1-10.42h0l-4.72,3.65,3.29,2.15Z" transform="translate(-2.19 -1.58)" fill="#d9c5b0"/><path d="M156.61,25.52l-.19.21a.73.73,0,0,1-.18.11.24.24,0,0,1-.14,0,.22.22,0,0,1-.12-.05l-3.19-2.64-2.45,3,3,2.49a.36.36,0,0,1,.07.1.22.22,0,0,1,0,.14.4.4,0,0,1-.07.19,1.49,1.49,0,0,1-.18.24,1.37,1.37,0,0,1-.19.21.69.69,0,0,1-.17.11.28.28,0,0,1-.15,0,.21.21,0,0,1-.12,0l-3-2.5-3,3.64a.26.26,0,0,1-.1.07.27.27,0,0,1-.15,0l-.21-.11a2.73,2.73,0,0,1-.3-.22,3.2,3.2,0,0,1-.26-.24c-.06-.08-.12-.14-.15-.19a.28.28,0,0,1,0-.15.37.37,0,0,1,0-.11l6.67-8.08a.57.57,0,0,1,.44-.25.61.61,0,0,1,.38.14l3.92,3.24a.14.14,0,0,1,.07.1.24.24,0,0,1,0,.15.64.64,0,0,1-.08.2Z" transform="translate(-2.19 -1.58)" fill="#d9c5b0"/><path d="M163.86,32.65a1.74,1.74,0,0,1-.22.19.85.85,0,0,1-.18.1.23.23,0,0,1-.26-.06L161,30.62l-7,6.9a.24.24,0,0,1-.11.06.22.22,0,0,1-.15,0l-.2-.13a1.79,1.79,0,0,1-.27-.24,1.66,1.66,0,0,1-.23-.27,1.08,1.08,0,0,1-.13-.2.22.22,0,0,1,0-.15.24.24,0,0,1,.06-.11l7-6.9-2.23-2.26a.19.19,0,0,1-.07-.12.34.34,0,0,1,0-.14,1.8,1.8,0,0,1,.1-.18l.19-.22.23-.19.18-.1a.2.2,0,0,1,.15,0,.24.24,0,0,1,.11.06L164.11,32a.27.27,0,0,1,.06.12.27.27,0,0,1,0,.15,1,1,0,0,1-.11.18C164,32.5,163.93,32.57,163.86,32.65Z" transform="translate(-2.19 -1.58)" fill="#d9c5b0"/><path d="M171.22,62.58l-.27.11-.21,0a.33.33,0,0,1-.15,0,.2.2,0,0,1-.09-.11l-2.16-4.51a.67.67,0,0,1,0-.4.56.56,0,0,1,.36-.37l9.45-4.51a.25.25,0,0,1,.12,0,.2.2,0,0,1,.13.08.83.83,0,0,1,.15.19,2.16,2.16,0,0,1,.17.31,2.05,2.05,0,0,1,.14.34.8.8,0,0,1,.05.23.24.24,0,0,1,0,.15.21.21,0,0,1-.1.08l-8.82,4.21L171.67,62a.25.25,0,0,1,0,.14.31.31,0,0,1-.07.14.5.5,0,0,1-.15.13A1.5,1.5,0,0,1,171.22,62.58Z" transform="translate(-2.19 -1.58)" fill="#d9c5b0"/><path d="M171.89,65.58a.2.2,0,0,1-.13,0,.24.24,0,0,1-.12-.09,1.22,1.22,0,0,1-.13-.19c0-.09-.1-.2-.16-.33s-.08-.25-.11-.34a1.29,1.29,0,0,1,0-.24.18.18,0,0,1,0-.15.18.18,0,0,1,.1-.07l10.11-4a.19.19,0,0,1,.13,0,.24.24,0,0,1,.12.09,1.16,1.16,0,0,1,.13.2,2.26,2.26,0,0,1,.15.31,2.68,2.68,0,0,1,.11.35.74.74,0,0,1,0,.23.31.31,0,0,1,0,.15.39.39,0,0,1-.1.08Z" transform="translate(-2.19 -1.58)" fill="#d9c5b0"/><path d="M182.35,72.61a4,4,0,0,1-1.55.17,3.3,3.3,0,0,1-1.34-.43,3.52,3.52,0,0,1-1.08-1,5.69,5.69,0,0,1-.77-1.66l-.38-1.23-3.9,1.18a.24.24,0,0,1-.12,0,.47.47,0,0,1-.12-.09l-.12-.21a2.14,2.14,0,0,1-.12-.34,2.1,2.1,0,0,1-.08-.35,1.15,1.15,0,0,1,0-.24.26.26,0,0,1,0-.14.3.3,0,0,1,.11-.07l10-3a.66.66,0,0,1,.53,0,.63.63,0,0,1,.26.36l.7,2.31c.07.24.13.46.18.69a6.67,6.67,0,0,1,.1.8,2.94,2.94,0,0,1-.09,1,2.9,2.9,0,0,1-.41,1,3,3,0,0,1-.75.76A3.87,3.87,0,0,1,182.35,72.61Zm-.58-1.48a2.42,2.42,0,0,0,1-.58,1.82,1.82,0,0,0,.48-.81,2.19,2.19,0,0,0,.05-.84,6.33,6.33,0,0,0-.17-.78l-.4-1.33-4.35,1.32.4,1.29a3.15,3.15,0,0,0,.49,1A2.31,2.31,0,0,0,180,71a2,2,0,0,0,.85.23A2.56,2.56,0,0,0,181.77,71.13Z" transform="translate(-2.19 -1.58)" fill="#d9c5b0"/><path d="M182.48,85.19a8.57,8.57,0,0,1-2.5.1,5.11,5.11,0,0,1-2-.64,4.07,4.07,0,0,1-1.44-1.39,5.65,5.65,0,0,1-.79-2.16,6,6,0,0,1,0-2.24,3.94,3.94,0,0,1,.84-1.7A4.63,4.63,0,0,1,178.2,76a9.25,9.25,0,0,1,2.39-.7,8.54,8.54,0,0,1,2.45-.09,5,5,0,0,1,2,.64,4.28,4.28,0,0,1,1.44,1.4,5.82,5.82,0,0,1,.79,2.16,5.64,5.64,0,0,1,0,2.21,3.91,3.91,0,0,1-.82,1.7,4.64,4.64,0,0,1-1.6,1.21A9.17,9.17,0,0,1,182.48,85.19Zm-.37-1.55a8,8,0,0,0,1.73-.47,4.12,4.12,0,0,0,1.32-.8,2.78,2.78,0,0,0,.75-1.2,3.57,3.57,0,0,0,.06-1.68,3.38,3.38,0,0,0-.63-1.55,3,3,0,0,0-1.15-.9,4,4,0,0,0-1.51-.35,8.44,8.44,0,0,0-1.72.12,9.4,9.4,0,0,0-1.78.47,4.17,4.17,0,0,0-1.34.79,2.78,2.78,0,0,0-.75,1.2A3.49,3.49,0,0,0,177,81a3.36,3.36,0,0,0,.64,1.57,2.92,2.92,0,0,0,1.16.9,4.08,4.08,0,0,0,1.52.33A7.55,7.55,0,0,0,182.11,83.64Z" transform="translate(-2.19 -1.58)" fill="#d9c5b0"/><path d="M181.17,100.72a5.23,5.23,0,0,1-1.83-.33,3.64,3.64,0,0,1-2.18-2.27,5.52,5.52,0,0,1-.25-1.83,5.09,5.09,0,0,1,.3-1.7,3.56,3.56,0,0,1,.82-1.3,3.46,3.46,0,0,1,1.34-.83,5.28,5.28,0,0,1,1.84-.26l7,.13a.21.21,0,0,1,.12,0,.25.25,0,0,1,.09.13c0,.05,0,.13,0,.22a2,2,0,0,1,0,.37,1.86,1.86,0,0,1,0,.36.83.83,0,0,1-.06.23.28.28,0,0,1-.08.12l-.12,0-6.84-.12a4.41,4.41,0,0,0-1.37.16,2.38,2.38,0,0,0-1.59,1.4,3.18,3.18,0,0,0-.22,1.15,3.28,3.28,0,0,0,.17,1.17,2.33,2.33,0,0,0,.56.88,2.61,2.61,0,0,0,1,.55,4,4,0,0,0,1.32.22l6.92.12a.28.28,0,0,1,.12,0,.28.28,0,0,1,.08.12,2.42,2.42,0,0,1,.05.24c0,.09,0,.21,0,.36a1.69,1.69,0,0,1,0,.35,1,1,0,0,1-.05.23.23.23,0,0,1-.09.12.16.16,0,0,1-.12,0Z" transform="translate(-2.19 -1.58)" fill="#d9c5b0"/><path d="M176.57,109.2l-.29-.06a.68.68,0,0,1-.19-.08A.29.29,0,0,1,176,109a.22.22,0,0,1,0-.14l.65-5a.69.69,0,0,1,.18-.36.57.57,0,0,1,.5-.11l10.38,1.36a.22.22,0,0,1,.12.05.32.32,0,0,1,.07.13,1.57,1.57,0,0,1,0,.25,2.47,2.47,0,0,1,0,.35,2.08,2.08,0,0,1-.07.36.79.79,0,0,1-.08.22c0,.06-.06.1-.1.11a.16.16,0,0,1-.12,0l-9.7-1.27-.53,4a.31.31,0,0,1-.06.13.36.36,0,0,1-.12.08.6.6,0,0,1-.2,0Z" transform="translate(-2.19 -1.58)" fill="#d9c5b0"/><path d="M184.8,118.43l-.28-.08a.77.77,0,0,1-.18-.1.2.2,0,0,1-.08-.12.19.19,0,0,1,0-.13l.67-3.11-9.59-2.06a.27.27,0,0,1-.12-.06.32.32,0,0,1-.05-.13,1,1,0,0,1,0-.24,1.81,1.81,0,0,1,.05-.36,2.14,2.14,0,0,1,.1-.35,1.56,1.56,0,0,1,.1-.22.26.26,0,0,1,.11-.1.24.24,0,0,1,.12,0l9.59,2.06.67-3.11a.34.34,0,0,1,.06-.12.26.26,0,0,1,.13-.06l.2,0,.29,0a1.54,1.54,0,0,1,.28.09l.19.09a.24.24,0,0,1,.09.12.19.19,0,0,1,0,.13l-1.65,7.69a.23.23,0,0,1-.06.12.37.37,0,0,1-.14.07.66.66,0,0,1-.21,0Z" transform="translate(-2.19 -1.58)" fill="#d9c5b0"/><path d="M171.79,124.67a.39.39,0,0,1-.11-.06.26.26,0,0,1,0-.14.62.62,0,0,1,0-.25,2.72,2.72,0,0,1,.12-.4c.05-.14.09-.26.13-.35a2.36,2.36,0,0,1,.13-.2.46.46,0,0,1,.15-.09l.19,0,2.86-.12c.33,0,.63-.05.91-.09a2.73,2.73,0,0,0,.78-.23,2,2,0,0,0,.61-.47,2.4,2.4,0,0,0,.43-.78l.32-1L173.75,119a.23.23,0,0,1-.11-.08.57.57,0,0,1,0-.14,1.29,1.29,0,0,1,0-.24,2.89,2.89,0,0,1,.1-.35,2.27,2.27,0,0,1,.13-.33,1,1,0,0,1,.13-.2.24.24,0,0,1,.12-.09.24.24,0,0,1,.12,0l9.91,3.39a.58.58,0,0,1,.4.33.68.68,0,0,1,0,.4l-.78,2.28a6.31,6.31,0,0,1-.25.66c-.07.18-.14.33-.21.47a4.19,4.19,0,0,1-.71,1,3,3,0,0,1-.86.6,2.56,2.56,0,0,1-1,.2,3.16,3.16,0,0,1-1.07-.18,3,3,0,0,1-.92-.48,2.58,2.58,0,0,1-.61-.67,3,3,0,0,1-.34-.85,4.48,4.48,0,0,1-.11-1,2.07,2.07,0,0,1-.46.38,2.46,2.46,0,0,1-.57.25,3.91,3.91,0,0,1-.69.16c-.25,0-.53.06-.84.08l-2.68.16H172A.49.49,0,0,1,171.79,124.67Zm8.25.43a2,2,0,0,0,1.16.08,1.65,1.65,0,0,0,1-.72,2.63,2.63,0,0,0,.24-.44c.08-.17.16-.4.26-.68l.41-1.2-3.61-1.23L179,122.3a3.4,3.4,0,0,0-.2,1,2.09,2.09,0,0,0,.15.81,1.56,1.56,0,0,0,.44.6A2.07,2.07,0,0,0,180,125.1Z" transform="translate(-2.19 -1.58)" fill="#d9c5b0"/><path d="M167.8,134.27a1.14,1.14,0,0,1-.32-.06.22.22,0,0,1-.13-.14.36.36,0,0,1,0-.24,2.52,2.52,0,0,1,.16-.4c.08-.16.14-.29.2-.39a1,1,0,0,1,.14-.2.26.26,0,0,1,.13-.08h.15l2.9.29,2-4.27-2.07-2a.64.64,0,0,1-.1-.13.33.33,0,0,1,0-.15.93.93,0,0,1,.05-.24,2.87,2.87,0,0,1,.15-.37,2.75,2.75,0,0,1,.2-.36c.06-.1.11-.15.17-.17a.21.21,0,0,1,.19,0,1.66,1.66,0,0,1,.25.2l7.92,7.88a.44.44,0,0,1,.1.15.39.39,0,0,1,0,.19,1.36,1.36,0,0,1-.08.28l-.17.4-.21.41a1.57,1.57,0,0,1-.16.25.33.33,0,0,1-.17.11.4.4,0,0,1-.19,0Zm10.46-.49h0L174,129.62l-1.67,3.57Z" transform="translate(-2.19 -1.58)" fill="#d9c5b0"/><path d="M162.37,142.39a.2.2,0,0,1-.09-.09.19.19,0,0,1,0-.15,1,1,0,0,1,.08-.22,1.63,1.63,0,0,1,.17-.31,2.45,2.45,0,0,1,.21-.3l.17-.17.13-.06a.28.28,0,0,1,.13,0l4.24,2.68,2.75-4.35-4.24-2.68a.28.28,0,0,1-.09-.1.22.22,0,0,1,0-.14.91.91,0,0,1,.08-.23,2.61,2.61,0,0,1,.17-.32l.21-.29c.07-.07.12-.13.17-.17a.24.24,0,0,1,.14-.06.19.19,0,0,1,.12,0l9.18,5.8a.17.17,0,0,1,.08.09.24.24,0,0,1,0,.15,2.16,2.16,0,0,1-.08.23,1.74,1.74,0,0,1-.18.31,1.69,1.69,0,0,1-.21.3,1.35,1.35,0,0,1-.17.17.3.3,0,0,1-.13.06.28.28,0,0,1-.13,0l-3.82-2.42-2.76,4.35,3.83,2.42a.28.28,0,0,1,.09.1.25.25,0,0,1,0,.15,1.76,1.76,0,0,1-.07.22c0,.08-.1.19-.18.32a2.88,2.88,0,0,1-.21.28.9.9,0,0,1-.17.17.22.22,0,0,1-.13.06.28.28,0,0,1-.13,0Z" transform="translate(-2.19 -1.58)" fill="#d9c5b0"/><path d="M159.49,154.84a8.25,8.25,0,0,1-1.73-1.94,4.79,4.79,0,0,1-.69-2,4.53,4.53,0,0,1,.31-2.06,7.5,7.5,0,0,1,1.33-2.14l1.53-1.84a.63.63,0,0,1,.35-.21.57.57,0,0,1,.48.17l7.74,6.47a.53.53,0,0,1,.25.44.57.57,0,0,1-.14.38l-1.64,2a6.91,6.91,0,0,1-1.88,1.67,4.66,4.66,0,0,1-1.93.6,4.49,4.49,0,0,1-2-.31A7.09,7.09,0,0,1,159.49,154.84Zm1-1.26a6.24,6.24,0,0,0,1.46.92,3.71,3.71,0,0,0,1.51.33,3.25,3.25,0,0,0,1.47-.36,5,5,0,0,0,1.48-1.26l1-1.18-6.76-5.64-1,1.19a5.44,5.44,0,0,0-1,1.57,3.06,3.06,0,0,0-.16,1.49,3.53,3.53,0,0,0,.6,1.47A6.82,6.82,0,0,0,160.46,153.58Z" transform="translate(-2.19 -1.58)" fill="#d9c5b0"/><path d="M143.57,166.32a5.27,5.27,0,0,1-.87-1.65,3.76,3.76,0,0,1-.13-1.62,3.55,3.55,0,0,1,.57-1.49,5.38,5.38,0,0,1,1.29-1.33,5,5,0,0,1,1.52-.81,3.55,3.55,0,0,1,1.54-.16,3.35,3.35,0,0,1,1.47.55,5.09,5.09,0,0,1,1.35,1.29l4.22,5.6a.21.21,0,0,1,.05.12.3.3,0,0,1-.05.14,1,1,0,0,1-.15.18,2.59,2.59,0,0,1-.28.24l-.3.2a1.13,1.13,0,0,1-.22.09.23.23,0,0,1-.14,0,.25.25,0,0,1-.1-.08l-4.12-5.46a4.33,4.33,0,0,0-1-1,2.58,2.58,0,0,0-1-.44,2.2,2.2,0,0,0-1.05.06,3.07,3.07,0,0,0-1,.53,3.15,3.15,0,0,0-.82.86,2.06,2.06,0,0,0-.34,1,2.49,2.49,0,0,0,.14,1.09,4.34,4.34,0,0,0,.65,1.17l4.16,5.52a.19.19,0,0,1,0,.12.2.2,0,0,1,0,.14l-.16.18a2.36,2.36,0,0,1-.27.24,1.81,1.81,0,0,1-.3.19,1.25,1.25,0,0,1-.21.1.27.27,0,0,1-.15,0,.2.2,0,0,1-.1-.08Z" transform="translate(-2.19 -1.58)" fill="#d9c5b0"/><path d="M136.26,177.08a2.86,2.86,0,0,1-.12-.27.63.63,0,0,1-.06-.2.23.23,0,0,1,0-.15.18.18,0,0,1,.08-.09.81.81,0,0,1,.38,0c.2,0,.45,0,.76,0a6.47,6.47,0,0,0,1-.17,4.8,4.8,0,0,0,1.27-.52,4.21,4.21,0,0,0,1.3-1.12,3.57,3.57,0,0,0,.63-1.44,4.31,4.31,0,0,0,0-1.64,5.83,5.83,0,0,0-.65-1.7,5.59,5.59,0,0,0-1.2-1.53,4.07,4.07,0,0,0-1.43-.82,3.3,3.3,0,0,0-1.53-.14,4.25,4.25,0,0,0-1.56.53,5.19,5.19,0,0,0-.87.63,3.81,3.81,0,0,0-.68.83l1.61,2.87,2.29-1.29a.24.24,0,0,1,.27,0,1.21,1.21,0,0,1,.29.37,1.44,1.44,0,0,1,.12.26.54.54,0,0,1,.05.19.26.26,0,0,1,0,.14.28.28,0,0,1-.09.1L135,173.68a.48.48,0,0,1-.18.06h-.2a.53.53,0,0,1-.21-.11,1,1,0,0,1-.17-.22l-2.11-3.76a.86.86,0,0,1-.13-.38.67.67,0,0,1,.15-.42c.1-.15.25-.34.43-.56s.39-.43.6-.63a7.22,7.22,0,0,1,.68-.56,8.21,8.21,0,0,1,.73-.47,6.29,6.29,0,0,1,2.24-.79,4.72,4.72,0,0,1,2.09.15,5,5,0,0,1,1.83,1,7.4,7.4,0,0,1,2.32,4.18,5.29,5.29,0,0,1-.09,2.18,5,5,0,0,1-1,1.91,5.89,5.89,0,0,1-1.79,1.5,6.36,6.36,0,0,1-1.12.49,8.08,8.08,0,0,1-1,.27,4,4,0,0,1-.81.07,1.91,1.91,0,0,1-.5,0,.65.65,0,0,1-.27-.15A1.68,1.68,0,0,1,136.26,177.08Z" transform="translate(-2.19 -1.58)" fill="#d9c5b0"/><path d="M122.32,172.66a.31.31,0,0,1,0-.13.3.3,0,0,1,.08-.12,1,1,0,0,1,.2-.14l.38-.18.35-.12a.85.85,0,0,1,.24,0,.48.48,0,0,1,.17,0l.14.13,2,2.08c.23.23.46.44.67.62a2.66,2.66,0,0,0,.68.43,1.79,1.79,0,0,0,.76.16,2.35,2.35,0,0,0,.87-.2l.93-.38-1.83-4.45a.19.19,0,0,1,0-.13.18.18,0,0,1,.08-.12.84.84,0,0,1,.19-.14,2.58,2.58,0,0,1,.33-.16l.34-.12.23,0a.19.19,0,0,1,.15,0,.24.24,0,0,1,.08.09l4,9.7a.55.55,0,0,1,0,.5.62.62,0,0,1-.31.27l-2.22.92-.67.25-.49.15a4.27,4.27,0,0,1-1.21.1,2.55,2.55,0,0,1-1-.25,2.63,2.63,0,0,1-.8-.6,3.31,3.31,0,0,1-.57-.93,3.23,3.23,0,0,1-.24-1,2.42,2.42,0,0,1,.11-.9,2.74,2.74,0,0,1,.41-.82,4.58,4.58,0,0,1,.67-.74,1.92,1.92,0,0,1-.59-.09,2.81,2.81,0,0,1-.56-.26,4.8,4.8,0,0,1-.58-.41c-.19-.17-.39-.36-.61-.58l-1.88-1.92-.32-.35A.66.66,0,0,1,122.32,172.66Zm5.11,6.49a2,2,0,0,0,.7.93,1.68,1.68,0,0,0,1.17.23,2.59,2.59,0,0,0,.49-.11c.18,0,.4-.13.68-.24l1.17-.49L130.19,176l-1.36.55a3.28,3.28,0,0,0-.89.53,2.19,2.19,0,0,0-.52.64,1.72,1.72,0,0,0-.16.73A2,2,0,0,0,127.43,179.15Z" transform="translate(-2.19 -1.58)" fill="#d9c5b0"/><path d="M112.42,175.81a1.2,1.2,0,0,1-.16-.28.21.21,0,0,1,0-.19.35.35,0,0,1,.2-.13l.41-.14.42-.1a.79.79,0,0,1,.25,0,.26.26,0,0,1,.14,0l.11.11,1.67,2.39,4.53-1.26.17-2.86a.33.33,0,0,1,0-.15.38.38,0,0,1,.09-.13.86.86,0,0,1,.22-.12,2.48,2.48,0,0,1,.38-.12,2,2,0,0,1,.4-.09.35.35,0,0,1,.24,0,.22.22,0,0,1,.11.15,1.07,1.07,0,0,1,0,.32l-.84,11.14a.48.48,0,0,1,0,.18.34.34,0,0,1-.13.14,1.62,1.62,0,0,1-.26.12L120,185l-.45.11-.3,0a.39.39,0,0,1-.2,0,.4.4,0,0,1-.13-.13Zm7.17,7.64h0l.37-5.95-3.79,1Z" transform="translate(-2.19 -1.58)" fill="#d9c5b0"/><path d="M106.55,187a1.59,1.59,0,0,1,0-.29.56.56,0,0,1,0-.2.36.36,0,0,1,.08-.12.3.3,0,0,1,.11-.06l4.09-.66-.61-3.8-3.87.63a.25.25,0,0,1-.12,0,.42.42,0,0,1-.12-.08,1,1,0,0,1-.09-.18c0-.08,0-.18-.06-.29a1.68,1.68,0,0,1,0-.29.44.44,0,0,1,.11-.33.16.16,0,0,1,.11,0l3.86-.63-.75-4.65a.29.29,0,0,1,0-.13.27.27,0,0,1,.11-.1l.22-.09a1.79,1.79,0,0,1,.36-.08,2.5,2.5,0,0,1,.35,0l.24,0a.26.26,0,0,1,.14.06.18.18,0,0,1,0,.11l1.68,10.34a.54.54,0,0,1-.1.5.66.66,0,0,1-.35.2l-5,.81a.25.25,0,0,1-.12,0,.35.35,0,0,1-.12-.1.48.48,0,0,1-.09-.19A1.77,1.77,0,0,1,106.55,187Z" transform="translate(-2.19 -1.58)" fill="#d9c5b0"/><path d="M96.38,187.75a1.4,1.4,0,0,1,0-.29.54.54,0,0,1,0-.2.35.35,0,0,1,.09-.11.2.2,0,0,1,.13,0l3.17-.2-.59-9.79a.18.18,0,0,1,0-.12.2.2,0,0,1,.11-.09,1,1,0,0,1,.23-.07l.36,0a2.15,2.15,0,0,1,.36,0,1.19,1.19,0,0,1,.24,0,.23.23,0,0,1,.13.07.28.28,0,0,1,0,.12l.59,9.79,3.18-.19a.28.28,0,0,1,.13,0,.24.24,0,0,1,.1.1,1.31,1.31,0,0,1,.07.19,2.16,2.16,0,0,1,0,.29,1.4,1.4,0,0,1,0,.29.87.87,0,0,1,0,.21.23.23,0,0,1-.21.16l-7.86.48a.31.31,0,0,1-.13,0,.24.24,0,0,1-.1-.1.86.86,0,0,1-.07-.21A2.16,2.16,0,0,1,96.38,187.75Z" transform="translate(-2.19 -1.58)" fill="#d9c5b0"/><path d="M69,173.53a2.34,2.34,0,0,1,.09-.28,1.42,1.42,0,0,1,.11-.18.51.51,0,0,1,.13-.09h.14l4.81,1.37a.54.54,0,0,1,.37.74l-2.85,10.07a.3.3,0,0,1-.07.11.26.26,0,0,1-.14,0,1.15,1.15,0,0,1-.24,0l-.35-.07-.35-.12a1,1,0,0,1-.21-.12.19.19,0,0,1-.09-.11.28.28,0,0,1,0-.13l2.67-9.41-3.91-1.11a.19.19,0,0,1-.12-.07A1,1,0,0,1,69,174a.66.66,0,0,1,0-.2A1.33,1.33,0,0,1,69,173.53Z" transform="translate(-2.19 -1.58)" fill="#d9c5b0"/><path d="M66.35,172.06a.2.2,0,0,1,.08-.1.2.2,0,0,1,.14,0l.23,0a2.13,2.13,0,0,1,.35.1l.33.14.21.13a.24.24,0,0,1,.09.12.29.29,0,0,1,0,.13l-3.68,10.21a.31.31,0,0,1-.08.11.35.35,0,0,1-.16,0l-.24,0a2.3,2.3,0,0,1-.33-.1l-.33-.14-.2-.13a.24.24,0,0,1-.09-.12.2.2,0,0,1,0-.13Z" transform="translate(-2.19 -1.58)" fill="#d9c5b0"/><path d="M54.14,175.27A3.86,3.86,0,0,1,55,174a3.18,3.18,0,0,1,1.2-.73,3.55,3.55,0,0,1,1.47-.15,5.61,5.61,0,0,1,1.76.51l1.17.53,1.68-3.7a.18.18,0,0,1,.09-.1.32.32,0,0,1,.14,0,1.39,1.39,0,0,1,.23,0,2.54,2.54,0,0,1,.34.13,2.24,2.24,0,0,1,.32.17.63.63,0,0,1,.19.15.21.21,0,0,1,.08.12.2.2,0,0,1,0,.13l-4.32,9.5A.63.63,0,0,1,59,181a.66.66,0,0,1-.44,0l-2.2-1a6.16,6.16,0,0,1-.63-.32,5.61,5.61,0,0,1-.67-.45,3.26,3.26,0,0,1-.7-.73,3,3,0,0,1-.45-.95,2.88,2.88,0,0,1-.08-1.06A3.38,3.38,0,0,1,54.14,175.27Zm1.49.55a2.31,2.31,0,0,0-.24,1.15,1.69,1.69,0,0,0,.29.9,2.24,2.24,0,0,0,.6.59,5.91,5.91,0,0,0,.69.38l1.27.58,1.88-4.13-1.24-.57a3.36,3.36,0,0,0-1.1-.31,2.34,2.34,0,0,0-.89.13,2.09,2.09,0,0,0-.73.49A2.8,2.8,0,0,0,55.63,175.82Z" transform="translate(-2.19 -1.58)" fill="#d9c5b0"/><path d="M44.6,167.07a8.68,8.68,0,0,1,1.57-1.94A5.13,5.13,0,0,1,48,164a4.16,4.16,0,0,1,2-.17,5.58,5.58,0,0,1,2.15.84,5.72,5.72,0,0,1,1.68,1.48,3.92,3.92,0,0,1,.73,1.74,4.85,4.85,0,0,1-.17,2,9.47,9.47,0,0,1-1,2.27,8.49,8.49,0,0,1-1.55,1.9,5.09,5.09,0,0,1-1.8,1.07,4.29,4.29,0,0,1-2,.16,6.51,6.51,0,0,1-3.81-2.3,3.92,3.92,0,0,1-.73-1.74,4.62,4.62,0,0,1,.15-2A8.9,8.9,0,0,1,44.6,167.07Zm1.41.74a8.53,8.53,0,0,0-.79,1.61,3.85,3.85,0,0,0-.27,1.52,2.79,2.79,0,0,0,.4,1.37,3.67,3.67,0,0,0,1.22,1.15,3.35,3.35,0,0,0,1.59.54,3.06,3.06,0,0,0,1.44-.26,4.25,4.25,0,0,0,1.25-.91,7.64,7.64,0,0,0,1-1.37,9.72,9.72,0,0,0,.82-1.65,4.1,4.1,0,0,0,.29-1.53,2.72,2.72,0,0,0-.4-1.35,3.57,3.57,0,0,0-1.24-1.15,3.29,3.29,0,0,0-1.6-.56,2.84,2.84,0,0,0-1.44.28,4.2,4.2,0,0,0-1.26.92A8.34,8.34,0,0,0,46,167.81Z" transform="translate(-2.19 -1.58)" fill="#d9c5b0"/><path d="M31,152.85a5.31,5.31,0,0,1,1.52-1.09,3.89,3.89,0,0,1,1.58-.35,3.66,3.66,0,0,1,1.56.36,5.65,5.65,0,0,1,1.5,1.09,5.38,5.38,0,0,1,1,1.4,3.67,3.67,0,0,1,.36,1.5,3.47,3.47,0,0,1-.34,1.54,5.06,5.06,0,0,1-1.09,1.5l-5,5a.17.17,0,0,1-.11.06.22.22,0,0,1-.15,0,.72.72,0,0,1-.19-.12,2.43,2.43,0,0,1-.28-.24,2.6,2.6,0,0,1-.24-.27A1.73,1.73,0,0,1,31,163a.29.29,0,0,1,0-.15.23.23,0,0,1,.07-.11l4.84-4.82a4.22,4.22,0,0,0,.83-1.11,2.52,2.52,0,0,0,.3-1.08,2.16,2.16,0,0,0-.2-1,3.15,3.15,0,0,0-.67-1,3.31,3.31,0,0,0-1-.69,2.17,2.17,0,0,0-1-.2,2.52,2.52,0,0,0-1.06.29,4.14,4.14,0,0,0-1.07.8l-4.9,4.89a.24.24,0,0,1-.11.06l-.15,0-.2-.13a2.6,2.6,0,0,1-.27-.24,1.66,1.66,0,0,1-.23-.27A1.3,1.3,0,0,1,26,158a.49.49,0,0,1,0-.15.24.24,0,0,1,.06-.11Z" transform="translate(-2.19 -1.58)" fill="#d9c5b0"/><path d="M28.06,143.64l.24-.17.2-.08h.15a.32.32,0,0,1,.12.08l3.11,3.92a.6.6,0,0,1,.13.38.57.57,0,0,1-.26.44l-8.2,6.52a.33.33,0,0,1-.12.05.34.34,0,0,1-.14-.05l-.19-.15a2.28,2.28,0,0,1-.23-.27,1.51,1.51,0,0,1-.21-.3,1.08,1.08,0,0,1-.11-.21.27.27,0,0,1,0-.15.19.19,0,0,1,.08-.1l7.65-6.09-2.52-3.17a.49.49,0,0,1-.06-.13.4.4,0,0,1,0-.15,1.36,1.36,0,0,1,.12-.17Z" transform="translate(-2.19 -1.58)" fill="#d9c5b0"/><path d="M15.69,143.14l.25-.15.2-.06a.22.22,0,0,1,.14,0,.27.27,0,0,1,.1.08l1.78,2.65,8.14-5.47a.19.19,0,0,1,.12,0,.24.24,0,0,1,.14.06.81.81,0,0,1,.17.16,2,2,0,0,1,.22.29,1.74,1.74,0,0,1,.18.31.73.73,0,0,1,.09.22.19.19,0,0,1,0,.15.25.25,0,0,1-.08.1L19,146.92l1.78,2.65a.28.28,0,0,1,0,.12.25.25,0,0,1,0,.14.83.83,0,0,1-.13.16l-.23.17a1.17,1.17,0,0,1-.25.15,1.28,1.28,0,0,1-.21.07.22.22,0,0,1-.14,0,.16.16,0,0,1-.1-.08l-4.39-6.53a.28.28,0,0,1,0-.13.27.27,0,0,1,0-.14.67.67,0,0,1,.14-.16A1.54,1.54,0,0,1,15.69,143.14Z" transform="translate(-2.19 -1.58)" fill="#d9c5b0"/><path d="M20.2,129.44a.27.27,0,0,1,.12,0,.22.22,0,0,1,.13.06.83.83,0,0,1,.16.19q.09.14.21.36l.16.34a.8.8,0,0,1,.05.23.25.25,0,0,1,0,.17,1.33,1.33,0,0,1-.12.16L19,133.08c-.21.25-.39.49-.56.72a2.85,2.85,0,0,0-.36.72,1.77,1.77,0,0,0-.08.76,2.24,2.24,0,0,0,.27.86l.47.89L23,134.79a.2.2,0,0,1,.13,0,.28.28,0,0,1,.13.07l.15.17a2.7,2.7,0,0,1,.19.32,1.55,1.55,0,0,1,.15.33,1.58,1.58,0,0,1,.06.23.2.2,0,0,1,0,.14.2.2,0,0,1-.09.09L14.43,141a.6.6,0,0,1-.51.06.64.64,0,0,1-.29-.27l-1.12-2.13c-.13-.26-.24-.47-.31-.65s-.14-.33-.2-.47a4.49,4.49,0,0,1-.22-1.19,2.71,2.71,0,0,1,.16-1,2.41,2.41,0,0,1,.52-.85,3.41,3.41,0,0,1,.87-.65,3.37,3.37,0,0,1,1-.34,2.53,2.53,0,0,1,.91,0,3.22,3.22,0,0,1,.85.34,4.34,4.34,0,0,1,.79.6,2.39,2.39,0,0,1,0-.6,2.86,2.86,0,0,1,.2-.58,4.52,4.52,0,0,1,.37-.61A8.25,8.25,0,0,1,18,132l1.73-2.05a4.72,4.72,0,0,1,.32-.35A.66.66,0,0,1,20.2,129.44Zm-6,5.7a2,2,0,0,0-.86.78,1.78,1.78,0,0,0-.12,1.19,2.7,2.7,0,0,0,.16.48,7,7,0,0,0,.31.65l.59,1.12,3.37-1.77-.68-1.3a3.38,3.38,0,0,0-.61-.84,2,2,0,0,0-.69-.45,1.66,1.66,0,0,0-.73-.1A2.07,2.07,0,0,0,14.21,135.14Z" transform="translate(-2.19 -1.58)" fill="#d9c5b0"/><path d="M16.13,119.9a1,1,0,0,1,.27-.18.21.21,0,0,1,.19,0,.41.41,0,0,1,.16.18l.17.4c.06.17.11.31.14.41a.91.91,0,0,1,0,.25.32.32,0,0,1,0,.14.44.44,0,0,1-.09.11l-2.23,1.9,1.68,4.39,2.87-.11.15,0a.34.34,0,0,1,.14.08.86.86,0,0,1,.13.2c.05.1.1.22.16.37a2.92,2.92,0,0,1,.13.39.42.42,0,0,1,0,.25.24.24,0,0,1-.14.12,1.25,1.25,0,0,1-.32,0l-11.17.21a.48.48,0,0,1-.18,0,.4.4,0,0,1-.15-.12,1.11,1.11,0,0,1-.14-.25,4,4,0,0,1-.17-.39,3.85,3.85,0,0,1-.15-.44,1,1,0,0,1-.06-.3.33.33,0,0,1,0-.2.36.36,0,0,1,.11-.14Zm-6.92,7.86h0l6-.2-1.41-3.67Z" transform="translate(-2.19 -1.58)" fill="#d9c5b0"/><path d="M14.07,110.36a.17.17,0,0,1,.12,0,.21.21,0,0,1,.11.1,1,1,0,0,1,.11.21,1.75,1.75,0,0,1,.1.34,2.45,2.45,0,0,1,.07.36.88.88,0,0,1,0,.23.19.19,0,0,1-.16.2L9.55,113l1.21,5,4.88-1.19h.13a.33.33,0,0,1,.11.1,1,1,0,0,1,.1.21,2.08,2.08,0,0,1,.11.35,3.35,3.35,0,0,1,.06.36,2.27,2.27,0,0,1,0,.24.38.38,0,0,1-.05.14.24.24,0,0,1-.11.06L5.45,120.85a.19.19,0,0,1-.13,0,.17.17,0,0,1-.11-.1,1.9,1.9,0,0,1-.11-.21,4.46,4.46,0,0,1-.17-.7,1,1,0,0,1,0-.24.2.2,0,0,1,.05-.14.24.24,0,0,1,.11-.06l4.4-1.07-1.22-5-4.4,1.07a.19.19,0,0,1-.13,0,.24.24,0,0,1-.1-.1,1,1,0,0,1-.11-.21,2.46,2.46,0,0,1-.11-.35,3.22,3.22,0,0,1-.06-.35,1,1,0,0,1,0-.24.17.17,0,0,1,.05-.13.16.16,0,0,1,.11-.07Z" transform="translate(-2.19 -1.58)" fill="#d9c5b0"/><path d="M7.11,99.66a7.81,7.81,0,0,1,2.59.09,4.6,4.6,0,0,1,1.93.9,4.5,4.5,0,0,1,1.26,1.64,7.77,7.77,0,0,1,.62,2.45l.26,2.38a.61.61,0,0,1-.09.39.56.56,0,0,1-.46.23l-10,1.09a.57.57,0,0,1-.49-.13.6.6,0,0,1-.17-.36l-.28-2.55a7.23,7.23,0,0,1,.11-2.51,4.49,4.49,0,0,1,.91-1.81,4.7,4.7,0,0,1,1.6-1.22A7.07,7.07,0,0,1,7.11,99.66Zm.23,1.56a6.1,6.1,0,0,0-1.67.41,3.79,3.79,0,0,0-1.29.86,3.23,3.23,0,0,0-.76,1.31,5,5,0,0,0-.12,1.94l.17,1.52,8.75-.94-.17-1.54a5.56,5.56,0,0,0-.46-1.79,3,3,0,0,0-1-1.14,3.57,3.57,0,0,0-1.48-.59A7,7,0,0,0,7.34,101.22Z" transform="translate(-2.19 -1.58)" fill="#d9c5b0"/></svg>