<svg id="Layer_1" data-name="Layer 1" xmlns="http://www.w3.org/2000/svg" viewBox="0 0 530.45 530.44"><defs><style>.cls-1{fill:none;stroke:#d9c4b0;stroke-miterlimit:10;stroke-width:5px;}.cls-2{font-size:39px;fill:#d9c5b0;font-family:Calibri-Bold, Calibri;font-weight:700;}</style></defs><title>selo_2</title><circle class="cls-1" cx="265.23" cy="263.72" r="119.44"/><circle class="cls-1" cx="265.23" cy="265.23" r="51.43"/><text class="cls-2" transform="translate(94.91 210.36) rotate(-69.54)">L</text><text class="cls-2" transform="translate(100.63 195.3) rotate(-65.39)">I</text><text class="cls-2" transform="translate(104.56 186.15) rotate(-60.53)">P</text><text class="cls-2" transform="translate(114.23 168.59) rotate(-53.17)">O</text><text class="cls-2" transform="matrix(0.67, -0.74, 0.74, 0.67, 130.04, 148.14)"> </text><text class="cls-2" transform="matrix(0.71, -0.71, 0.71, 0.71, 135.81, 141.79)"> </text><text class="cls-2" transform="translate(141.43 135.62) rotate(-39.56)">U</text><text class="cls-2" transform="matrix(0.84, -0.55, 0.55, 0.84, 160.71, 119.98)">L</text><text class="cls-2" transform="matrix(0.88, -0.48, 0.48, 0.88, 171.68, 112.61)">T</text><text class="cls-2" transform="translate(188.06 103.63) rotate(-22.04)">R</text><text class="cls-2" transform="translate(207.76 95.55) rotate(-14.98)">A</text><text class="cls-2" transform="translate(229.87 89.55) rotate(-7.48)">H</text><text class="cls-2" transform="translate(253.54 86.39) rotate(0.21)">D</text><text class="cls-2" transform="matrix(1, 0.09, -0.09, 1, 277.6, 86.82)"> </text><text class="cls-2" transform="matrix(0.99, 0.14, -0.14, 0.99, 286.13, 87.62)"> </text><text class="cls-2" transform="translate(294.45 88.41) rotate(13.52)">U</text><text class="cls-2" transform="matrix(0.93, 0.36, -0.36, 0.93, 318.47, 94.15)">G</text><text class="cls-2" transform="translate(340.98 102.94) rotate(28.47)">R</text><text class="cls-2" transform="translate(359.72 112.99) rotate(35.59)">A</text><text class="cls-2" transform="matrix(0.74, 0.67, -0.67, 0.74, 378.36, 126.49)">F</text><text class="cls-2" transform="translate(391.27 138.07) rotate(47.89)">T</text><text class="cls-2" transform="translate(403.8 152.2) rotate(52.26)"> </text><text class="cls-2" transform="translate(409.06 159) rotate(55.01)"> </text><text class="cls-2" transform="matrix(0.53, 0.85, -0.85, 0.53, 413.99, 166.04)"> </text><text class="cls-2" transform="translate(418.58 173.29) rotate(60.48)"> </text><text class="cls-2" transform="translate(422.83 180.78) rotate(63.23)"> </text><text class="cls-2" transform="translate(426.77 188.28) rotate(67.15)">L</text><text class="cls-2" transform="translate(432.93 203.15) rotate(71.31)">I</text><text class="cls-2" transform="translate(436.35 212.5) rotate(76.14)">P</text><text class="cls-2" transform="translate(441.37 231.93) rotate(83.48)">O</text><text class="cls-2" transform="matrix(0.02, 1, -1, 0.02, 443.91, 257.62)"> </text><text class="cls-2" transform="translate(444.47 265.94) rotate(94.35)">U</text><text class="cls-2" transform="translate(442.37 290.67) rotate(100.89)">L</text><text class="cls-2" transform="translate(440.06 303.69) rotate(105.54)">T</text><text class="cls-2" transform="translate(435.16 321.73) rotate(111.85)">R</text><text class="cls-2" transform="translate(427.32 341.53) rotate(118.93)">A</text><text class="cls-2" transform="translate(416.31 361.63) rotate(126.47)">H</text><text class="cls-2" transform="matrix(-0.7, 0.72, -0.72, -0.7, 402.17, 380.83)">D</text><text class="cls-2" transform="matrix(-0.76, 0.65, -0.65, -0.76, 385.15, 397.88)"> </text><text class="cls-2" transform="translate(378.64 403.48) rotate(142.1)"> </text><text class="cls-2" transform="matrix(-0.84, 0.54, -0.54, -0.84, 372.32, 408.92)">U</text><text class="cls-2" transform="translate(351.52 422.25) rotate(155.17)">G</text><text class="cls-2" transform="translate(329.59 432.35) rotate(162.4)">R</text><text class="cls-2" transform="translate(309.32 438.87) rotate(169.48)">A</text><text class="cls-2" transform="matrix(-1, 0.07, -0.07, -1, 286.7, 442.95)">F</text><text class="cls-2" transform="translate(269.39 444.24) rotate(-178.22)">T</text><text class="cls-2" transform="translate(250.5 443.46) rotate(-173.8)"> </text><text class="cls-2" transform="translate(241.96 442.54) rotate(-171.04)"> </text><text class="cls-2" transform="translate(233.48 441.21) rotate(-168.29)"> </text><text class="cls-2" transform="translate(225.06 439.47) rotate(-165.55)"> </text><text class="cls-2" transform="matrix(-0.96, -0.29, 0.29, -0.96, 216.73, 437.31)"> </text><text class="cls-2" transform="translate(208.62 434.97) rotate(-158.97)">L</text><text class="cls-2" transform="translate(193.61 429.1) rotate(-154.8)">I</text><text class="cls-2" transform="matrix(-0.87, -0.5, 0.5, -0.87, 184.51, 425.08)">P</text><text class="cls-2" transform="matrix(-0.79, -0.61, 0.61, -0.79, 167.03, 415.22)">O</text><text class="cls-2" transform="translate(146.75 399.21) rotate(-137.07)"> </text><text class="cls-2" transform="matrix(-0.7, -0.72, 0.72, -0.7, 140.48, 393.37)"> </text><text class="cls-2" transform="translate(134.36 387.7) rotate(-128.98)">U</text><text class="cls-2" transform="translate(118.91 368.24) rotate(-122.47)">L</text><text class="cls-2" transform="matrix(-0.47, -0.88, 0.88, -0.47, 111.67, 357.22)">T</text><text class="cls-2" transform="translate(102.84 340.73) rotate(-111.45)">R</text><text class="cls-2" transform="translate(94.96 320.94) rotate(-104.39)">A</text><text class="cls-2" transform="translate(89.19 298.78) rotate(-96.89)">H</text><text class="cls-2" transform="translate(86.28 275.1) rotate(-89.2)">D</text><text class="cls-2" transform="translate(86.95 251.02) rotate(-83.97)"> </text></svg>