<svg xmlns="http://www.w3.org/2000/svg" id="Layer_4" data-name="Layer 4" viewBox="0 0 35.51 30.29"><defs><style>.cls-1{fill:none;stroke:#6C6056;stroke-miterlimit:10;stroke-width:0.5px;}</style></defs><title>footer_quotes</title><path class="cls-1" d="M22.38,9.13H6.5V23h9c-.08,8.66-8.15,10.29-8.15,10.29s0,.29,0,5.55c13.45-2.58,14.88-12.7,15-15.84h0V23c0-.54,0-.88,0-.88Z" transform="translate(-6.25 -8.88)"/><path class="cls-1" d="M41.5,22.07V9.13H25.61V23h9c-.09,8.66-8.15,10.29-8.15,10.29s0,.29,0,5.55c13.44-2.58,14.88-12.7,15-15.84h0V23C41.51,22.41,41.5,22.07,41.5,22.07Z" transform="translate(-6.25 -8.88)"/></svg>